<?xml version="1.0" encoding="UTF-8" standalone="no"?>
<!-- Created with Inkscape (http://www.inkscape.org/) -->

<svg
   xmlns:dc="http://purl.org/dc/elements/1.1/"
   xmlns:cc="http://creativecommons.org/ns#"
   xmlns:rdf="http://www.w3.org/1999/02/22-rdf-syntax-ns#"
   xmlns:svg="http://www.w3.org/2000/svg"
   xmlns="http://www.w3.org/2000/svg"
   xmlns:sodipodi="http://sodipodi.sourceforge.net/DTD/sodipodi-0.dtd"
   xmlns:inkscape="http://www.inkscape.org/namespaces/inkscape"
   version="1.1"
   id="svg2"
   xml:space="preserve"
   width="944"
   height="377.33334"
   viewBox="0 0 944 377.33334"
   sodipodi:docname="vennplot_bltis.svg"
   inkscape:version="0.92.2 5c3e80d, 2017-08-06"><metadata
     id="metadata8"><rdf:RDF><cc:Work
         rdf:about=""><dc:format>image/svg+xml</dc:format><dc:type
           rdf:resource="http://purl.org/dc/dcmitype/StillImage" /><dc:title></dc:title></cc:Work></rdf:RDF></metadata><defs
     id="defs6" /><sodipodi:namedview
     pagecolor="#ffffff"
     bordercolor="#666666"
     borderopacity="1"
     objecttolerance="10"
     gridtolerance="10"
     guidetolerance="10"
     inkscape:pageopacity="0"
     inkscape:pageshadow="2"
     inkscape:window-width="1262"
     inkscape:window-height="750"
     id="namedview4"
     showgrid="false"
     inkscape:zoom="0.84110169"
     inkscape:cx="427.5834"
     inkscape:cy="188.66667"
     inkscape:window-x="138"
     inkscape:window-y="27"
     inkscape:window-maximized="0"
     inkscape:current-layer="layer1" /><g
     id="g10"
     inkscape:groupmode="layer"
     inkscape:label="vennplot_bltis"
     transform="matrix(1.3333333,0,0,-1.3333333,0,377.33333)"><g
       id="g12" /><g
       id="g14" /><g
       id="g16" /><g
       id="g18" /><g
       id="g20" /><g
       id="g22"><path
         d="m 177.07,2.8 -2.33,0.08 -2.87,0.19 -2.81,0.31 -2.76,0.41 -2.69,0.51 -2.63,0.62 -2.56,0.72 -2.49,0.83 -2.42,0.93 -2.34,1.03 -2.26,1.13 -2.19,1.23 -2.1,1.33 -2.02,1.43 -1.93,1.52 -1.85,1.61 -1.75,1.71 -1.67,1.8 -1.57,1.89 -1.47,1.97 -1.38,2.06 -1.28,2.15 -1.19,2.22 -1.08,2.3 -0.98,2.38 -0.88,2.46 -0.78,2.52 -0.67,2.59 -0.57,2.66 -0.46,2.73 -0.36,2.78 -0.25,2.85 -0.15,2.89 -0.04,2.96 0.06,3 0.18,3.05 0.17,1.89 -2.54,0.18 -2.82,0.3 -2.75,0.41 -2.7,0.51 -2.62,0.62 -2.56,0.72 -2.49,0.83 -2.42,0.93 -2.34,1.03 -2.27,1.13 -2.18,1.23 -2.11,1.33 -2.01,1.43 -1.94,1.52 -1.84,1.62 -1.76,1.7 -1.66,1.8 -1.57,1.89 -1.48,1.98 -1.38,2.06 -1.28,2.14 -1.18,2.22 -1.08,2.31 -0.99,2.37 -0.88,2.46 -0.77,2.52 -0.68,2.6 -0.57,2.66 -0.46,2.72 -0.36,2.79 -0.25,2.84 -0.15,2.9 -0.04,2.95 0.07,3 0.17,3.05 0.28,3.09 0.39,3.13 0.48,3.17 0.6,3.2 0.7,3.24 0.8,3.26 0.9,3.29 1.01,3.31 1.11,3.32 1.21,3.35 1.3,3.35 1.41,3.36 1.5,3.36 0.62,1.33 -0.62,1.33 -1.5,3.37 -1.41,3.36 -1.3,3.35 -1.21,3.34 -1.11,3.33 -1.01,3.31 -0.9,3.29 -0.8,3.26 -0.7,3.23 -0.6,3.21 -0.48,3.17 -0.39,3.13 -0.11,1.19 -2.54,-0.17 -2.81,-0.31 -2.76,-0.4 -2.69,-0.52 -2.63,-0.62 -2.56,-0.72 -2.49,-0.83 -2.42,-0.93 -2.34,-1.03 -2.26,-1.13 -2.19,-1.23 -2.1,-1.33 -2.02,-1.42 -1.93,-1.53 -1.85,-1.61 -1.75,-1.71 -1.67,-1.8 -1.57,-1.89 -1.47,-1.97 -1.38,-2.06 -1.28,-2.14 -1.19,-2.23 -1.08,-2.3 -0.98,-2.38 -0.88,-2.45 -0.78,-2.53 -0.67,-2.59 -0.57,-2.66 -0.46,-2.73 -0.36,-2.78 -0.25,-2.84 -0.15,-2.9 -0.04,-2.95 0.07,-3.01 0.17,-3.04 0.28,-3.1 0.38,-3.13 0.49,-3.17 0.59,-3.2 0.7,-3.23 0.81,-3.27 0.9,-3.28 1.01,-3.31 1.11,-3.33 1.2,-3.34 1.31,-3.35 1.4,-3.36 1.5,-3.37 1.59,-3.37 1.69,-3.36 1.78,-3.36 1.87,-3.35 1.95,-3.34 2.04,-3.32 2.12,-3.31 2.21,-3.28 2.28,-3.25 2.36,-3.23 2.44,-3.2 2.5,-3.16 2.58,-3.13 2.64,-3.08 2.71,-3.04 2.77,-2.99 2.83,-2.94 2.89,-2.89 2.94,-2.83 2.98,-2.77 3.04,-2.71 3.08,-2.65 3.12,-2.58 3.16,-2.51 3.2,-2.43 3.22,-2.37 3.26,-2.28 3.28,-2.21 3.3,-2.13 3.32,-2.04 3.34,-1.96 3.35,-1.86 3.36,-1.78 3.36,-1.69 3.37,-1.6 3.36,-1.5 3.36,-1.41 3.35,-1.31 3.34,-1.21 3.33,-1.11 3.3,-1.01 3.29,-0.9 3.26,-0.81 3.24,-0.7 3.2,-0.6 3.17,-0.49 3.13,-0.39 3.09,-0.28 3.05,-0.17 3,-0.07 z"
         style="fill:#723281;fill-opacity:1;fill-rule:nonzero;stroke:none"
         id="path24"
         inkscape:connector-curvature="0" /><path
         d="m 180.64,2.8 3.03,0.12 3.07,0.23 3.11,0.33 3.15,0.44 3.19,0.55 3.22,0.65 3.25,0.75 3.27,0.86 3.3,0.96 3.31,1.06 3.34,1.16 3.34,1.26 3.36,1.35 3.36,1.46 3.37,1.55 3.36,1.64 3.36,1.73 3.36,1.83 3.34,1.91 3.33,2 3.31,2.09 3.29,2.16 3.27,2.25 3.24,2.33 3.22,2.4 3.17,2.47 3.14,2.55 3.11,2.61 3.05,2.68 3.02,2.74 2.96,2.8 2.91,2.86 2.86,2.92 2.8,2.96 2.74,3.02 2.68,3.06 2.61,3.1 2.54,3.14 2.47,3.18 2.4,3.22 2.32,3.24 2.25,3.27 2.16,3.29 2.08,3.32 2,3.33 1.91,3.34 1.82,3.36 1.73,3.36 1.64,3.37 1.55,3.36 1.45,3.37 1.36,3.35 1.25,3.35 1.16,3.34 1.06,3.31 0.96,3.3 0.85,3.28 0.75,3.25 0.65,3.22 0.54,3.18 0.43,3.15 0.34,3.12 0.22,3.07 0.12,3.02 0.01,2.98 -0.09,2.92 -0.2,2.87 -0.3,2.82 -0.41,2.75 -0.52,2.7 -0.62,2.62 -0.73,2.56 -0.83,2.49 -0.93,2.42 -1.03,2.34 -1.13,2.26 -1.23,2.19 -1.34,2.1 -1.42,2.02 -1.53,1.93 -1.61,1.84 -1.71,1.76 -1.8,1.66 -1.89,1.57 -1.98,1.47 -2.06,1.38 -2.14,1.28 -2.23,1.18 -2.3,1.08 -2.38,0.98 -2.46,0.88 -2.52,0.77 -2.6,0.68 -2.66,0.56 -2.72,0.46 -2.79,0.36 -2.84,0.25 -1.11,0.05 -0.29,-2.74 -0.44,-3.15 -0.54,-3.19 -0.64,-3.22 -0.76,-3.25 -0.85,-3.28 -0.95,-3.29 -1.06,-3.32 -1.16,-3.34 -1.26,-3.34 -1.35,-3.36 -1.45,-3.36 -1.39,-3.02 1.39,-3.01 1.45,-3.36 1.35,-3.36 1.26,-3.35 1.16,-3.33 1.06,-3.32 0.95,-3.3 0.85,-3.27 0.76,-3.25 0.64,-3.22 0.54,-3.19 0.44,-3.15 0.33,-3.11 0.23,-3.07 0.12,-3.03 0.01,-2.97 -0.09,-2.93 -0.2,-2.87 -0.31,-2.81 -0.41,-2.76 -0.52,-2.69 -0.62,-2.63 -0.72,-2.56 -0.83,-2.49 -0.93,-2.41 -1.03,-2.35 -1.14,-2.26 -1.23,-2.18 -1.33,-2.1 -1.43,-2.02 -1.52,-1.93 -1.62,-1.85 -1.71,-1.75 -1.8,-1.66 -1.89,-1.57 -1.97,-1.48 -2.06,-1.37 -2.15,-1.29 -2.22,-1.18 -2.31,-1.08 -2.38,-0.98 -2.45,-0.88 -2.53,-0.77 -2.59,-0.67 -2.66,-0.57 -2.73,-0.46 -2.78,-0.36 -2.84,-0.25 -1.11,-0.05 0.04,-0.36 0.22,-3.07 0.12,-3.03 0.02,-2.98 -0.1,-2.92 -0.2,-2.87 -0.3,-2.82 -0.41,-2.75 -0.52,-2.69 -0.62,-2.63 -0.73,-2.56 -0.82,-2.49 -0.94,-2.42 -1.03,-2.34 -1.13,-2.26 -1.23,-2.19 -1.33,-2.1 -1.43,-2.02 -1.53,-1.93 -1.61,-1.84 -1.71,-1.75 -1.8,-1.67 -1.89,-1.57 -1.98,-1.47 -2.06,-1.38 -2.14,-1.28 L 204.3,8.98 202,7.9 199.62,6.92 197.16,6.04 194.64,5.27 192.05,4.6 l -2.67,-0.57 -2.72,-0.46 -2.79,-0.36 -2.84,-0.25 -2.9,-0.14 -1.06,-0.02 0.6,-0.01 z"
         style="fill:#6396be;fill-opacity:1;fill-rule:nonzero;stroke:none"
         id="path26"
         inkscape:connector-curvature="0" /><path
         d="m 107.33,212.26 2.57,3.12 2.65,3.08 2.71,3.04 2.77,2.99 2.83,2.94 2.88,2.89 2.94,2.83 2.99,2.77 3.03,2.71 3.09,2.65 3.12,2.58 3.16,2.51 3.19,2.44 3.23,2.36 3.25,2.29 3.28,2.2 3.31,2.13 3.32,2.04 3.33,1.96 3.35,1.87 3.36,1.78 3.36,1.69 2.12,1 -2.94,1.36 -3.36,1.45 -3.36,1.36 -3.35,1.26 -3.33,1.16 -3.32,1.06 -3.29,0.96 -3.28,0.85 -3.25,0.76 -3.22,0.65 -3.18,0.54 -3.15,0.44 -3.12,0.33 -3.06,0.23 -3.03,0.12 -2.98,0.02 -2.92,-0.09 -2.87,-0.2 -2.82,-0.3 -2.75,-0.41 -2.7,-0.51 -2.62,-0.62 -2.56,-0.73 -2.49,-0.82 -2.42,-0.93 -2.34,-1.03 -2.27,-1.13 -2.18,-1.24 -2.11,-1.32 -2.01,-1.43 -1.94,-1.52 -1.84,-1.62 -1.76,-1.71 -1.66,-1.8 -1.57,-1.88 -1.48,-1.98 -1.38,-2.06 -1.28,-2.14 -1.18,-2.23 -1.08,-2.3 -0.99,-2.38 -0.88,-2.45 -0.77,-2.53 -0.68,-2.59 -0.57,-2.66 -0.46,-2.72 -0.36,-2.79 -0.25,-2.84 -0.15,-2.9 -0.04,-2.95 0.07,-3 0.17,-3.05 0.17,-1.9 0.33,0.03 2.93,0.09 2.98,-0.02 3.02,-0.12 3.07,-0.23 3.11,-0.33 3.15,-0.44 3.19,-0.55 3.22,-0.65 3.25,-0.75 3.27,-0.86 3.3,-0.95 0.51,-0.17 z"
         style="fill:#6eeaa8;fill-opacity:1;fill-rule:nonzero;stroke:none"
         id="path28"
         inkscape:connector-curvature="0" /><path
         d="m 250.18,211.63 3.29,0.91 3.26,0.8 3.24,0.7 3.2,0.6 3.17,0.49 3.13,0.39 3.09,0.28 3.05,0.17 3,0.07 2.95,-0.04 1.79,-0.09 0.04,0.37 0.23,3.07 0.12,3.02 0.01,2.98 -0.09,2.93 -0.2,2.87 -0.31,2.81 -0.41,2.76 -0.52,2.69 -0.62,2.63 -0.72,2.56 -0.83,2.49 -0.93,2.41 -1.03,2.34 -1.14,2.27 -1.23,2.18 -1.33,2.1 -1.43,2.02 -1.52,1.93 -1.62,1.85 -1.71,1.75 -1.8,1.66 -1.89,1.57 -1.97,1.47 -2.06,1.38 -2.15,1.28 -2.22,1.18 -2.31,1.09 -2.38,0.98 -2.45,0.87 -2.53,0.78 -2.59,0.67 -2.66,0.57 -2.73,0.46 -2.78,0.35 -2.84,0.25 -2.9,0.15 -2.96,0.03 -3,-0.06 -3.04,-0.18 -3.09,-0.28 -3.14,-0.39 -3.17,-0.49 -3.2,-0.6 -3.23,-0.7 -3.26,-0.8 -3.29,-0.91 -3.31,-1.01 -3.32,-1.11 -3.34,-1.21 -3.36,-1.31 -3.36,-1.4 -3.36,-1.51 -1.25,-0.59 0.42,-0.19 3.37,-1.64 3.36,-1.74 3.35,-1.82 3.35,-1.92 3.33,-2 3.31,-2.08 3.29,-2.17 3.27,-2.25 3.24,-2.32 3.21,-2.4 3.18,-2.48 3.14,-2.54 3.1,-2.61 3.06,-2.68 3.01,-2.74 2.97,-2.81 2.91,-2.86 2.86,-2.91 2.8,-2.97 2.74,-3.01 2.67,-3.06 2.61,-3.11 2.31,-2.85 z"
         style="fill:#ffff63;fill-opacity:1;fill-rule:nonzero;stroke:none"
         id="path30"
         inkscape:connector-curvature="0" /><path
         d="m 178.13,2.82 2.9,0.14 2.84,0.25 2.79,0.36 2.72,0.46 2.67,0.57 2.59,0.67 2.52,0.77 2.46,0.88 2.38,0.98 2.3,1.08 2.23,1.18 2.14,1.28 2.06,1.38 1.98,1.47 1.89,1.57 1.8,1.67 1.71,1.75 1.61,1.84 1.53,1.93 1.43,2.02 1.33,2.1 1.23,2.19 1.13,2.26 1.03,2.34 0.94,2.42 0.82,2.49 0.73,2.56 0.62,2.63 0.52,2.69 0.41,2.75 0.3,2.82 0.2,2.87 0.1,2.92 -0.02,2.98 -0.12,3.03 -0.22,3.07 -0.04,0.36 -1.79,-0.09 -2.96,-0.04 -3,0.07 -3.04,0.18 -3.09,0.28 -3.14,0.38 -3.17,0.5 -3.2,0.59 -3.23,0.7 -3.26,0.81 -3.29,0.91 -3.31,1.01 -3.32,1.11 -3.34,1.21 -3.36,1.3 -3.36,1.41 -3.36,1.5 -1.25,0.59 -2.94,-1.35 -3.36,-1.45 -3.36,-1.36 -3.35,-1.26 -3.33,-1.16 -3.32,-1.06 -3.29,-0.96 -3.28,-0.86 -3.25,-0.75 -3.22,-0.65 -3.18,-0.54 -3.15,-0.44 -3.12,-0.34 -3.06,-0.22 -3.03,-0.13 -2.98,-0.01 -2.92,0.09 -0.33,0.02 -0.17,-1.89 -0.18,-3.05 -0.06,-3 0.04,-2.96 0.15,-2.89 0.25,-2.85 0.36,-2.78 0.46,-2.73 0.57,-2.66 0.67,-2.59 0.78,-2.52 0.88,-2.46 0.98,-2.38 1.08,-2.3 1.19,-2.22 1.28,-2.15 1.38,-2.06 1.47,-1.97 1.57,-1.89 1.67,-1.8 1.75,-1.71 1.85,-1.61 1.93,-1.52 2.02,-1.43 2.1,-1.33 2.19,-1.23 2.26,-1.13 2.34,-1.03 2.42,-0.93 2.49,-0.83 2.56,-0.72 2.63,-0.62 2.69,-0.51 2.76,-0.41 2.81,-0.31 2.87,-0.19 2.33,-0.08 z"
         style="fill:#71669f;fill-opacity:1;fill-rule:nonzero;stroke:none"
         id="path32"
         inkscape:connector-curvature="0" /><path
         d="m 84.09,176.09 1.69,3.36 1.77,3.36 1.87,3.35 1.95,3.34 2.04,3.33 2.13,3.3 2.2,3.28 2.28,3.26 2.37,3.23 2.43,3.19 1.49,1.88 -0.51,0.17 -3.3,0.95 -3.27,0.86 -3.25,0.75 -3.22,0.65 -3.19,0.55 -3.15,0.44 -3.11,0.33 -3.07,0.23 -3.02,0.12 -2.98,0.02 -2.93,-0.09 -0.33,-0.03 0.11,-1.19 0.39,-3.13 0.48,-3.17 0.6,-3.21 0.7,-3.23 0.8,-3.26 0.9,-3.29 1.01,-3.31 1.11,-3.33 1.21,-3.34 1.3,-3.35 1.41,-3.36 1.5,-3.37 0.62,-1.33 z"
         style="fill:#809096;fill-opacity:1;fill-rule:nonzero;stroke:none"
         id="path34"
         inkscape:connector-curvature="0" /><path
         d="m 122.81,68.74 0.38,3.13 0.49,3.17 0.59,3.2 0.7,3.24 0.8,3.26 0.91,3.29 1.01,3.3 1.1,3.33 1.21,3.34 1.31,3.35 1.4,3.37 1.5,3.36 0.03,0.07 -1.54,1.32 -3.03,2.71 -2.99,2.78 -2.94,2.83 -2.88,2.88 -2.83,2.95 -2.77,2.99 -2.71,3.03 -2.65,3.09 -2.57,3.12 -2.51,3.16 -2.43,3.2 -2.37,3.23 -2.28,3.25 -2.2,3.29 -2.13,3.3 -2.04,3.32 -1.95,3.34 -1.87,3.35 -1.77,3.36 -1.69,3.37 -0.97,2.03 -0.62,-1.33 -1.5,-3.36 -1.41,-3.36 -1.3,-3.35 -1.21,-3.35 -1.11,-3.32 -1.01,-3.31 -0.9,-3.29 -0.8,-3.26 -0.7,-3.24 -0.6,-3.2 -0.48,-3.17 -0.39,-3.13 -0.28,-3.09 -0.17,-3.05 -0.07,-3 0.04,-2.95 0.15,-2.9 0.25,-2.84 0.36,-2.79 0.46,-2.72 0.57,-2.66 0.68,-2.6 0.77,-2.52 0.88,-2.46 0.99,-2.37 1.08,-2.31 1.18,-2.22 1.28,-2.14 1.38,-2.06 1.48,-1.98 1.57,-1.89 1.66,-1.8 1.76,-1.7 1.84,-1.62 1.94,-1.52 2.01,-1.43 2.11,-1.33 2.18,-1.23 2.27,-1.13 2.34,-1.03 2.42,-0.93 2.49,-0.83 2.56,-0.72 2.62,-0.62 2.7,-0.51 2.75,-0.41 2.82,-0.3 2.54,-0.18 z"
         style="fill:#be967b;fill-opacity:1;fill-rule:nonzero;stroke:none"
         id="path36"
         inkscape:connector-curvature="0" /><path
         d="m 232.75,67.6 2.84,0.25 2.78,0.36 2.73,0.46 2.66,0.57 2.59,0.67 2.53,0.77 2.45,0.88 2.38,0.98 2.31,1.08 2.22,1.18 2.15,1.29 2.06,1.37 1.97,1.48 1.89,1.57 1.8,1.66 1.71,1.75 1.62,1.85 1.52,1.93 1.43,2.02 1.33,2.1 1.23,2.18 1.14,2.26 1.03,2.35 0.93,2.41 0.83,2.49 0.72,2.56 0.62,2.63 0.52,2.69 0.41,2.76 0.31,2.81 0.2,2.87 0.09,2.93 -0.01,2.97 -0.12,3.03 -0.23,3.07 -0.33,3.11 -0.44,3.15 -0.54,3.19 -0.64,3.22 -0.76,3.25 -0.85,3.27 -0.95,3.3 -1.06,3.32 -1.16,3.33 -1.26,3.35 -1.35,3.36 -1.45,3.36 -1.39,3.01 -0.16,-0.35 -1.64,-3.37 -1.73,-3.36 -1.82,-3.35 -1.91,-3.35 -2,-3.33 -2.08,-3.31 -2.17,-3.3 -2.24,-3.27 -2.33,-3.24 -2.39,-3.21 -2.47,-3.18 -2.55,-3.15 -2.61,-3.1 -2.67,-3.06 -2.74,-3.02 -2.8,-2.96 -2.86,-2.92 -2.91,-2.86 -2.97,-2.8 -3.01,-2.74 -3.06,-2.68 h -0.01 l 0.8,-1.74 1.45,-3.37 1.36,-3.35 1.26,-3.35 1.15,-3.33 1.06,-3.32 0.96,-3.3 0.85,-3.28 0.75,-3.24 0.65,-3.22 0.54,-3.19 0.44,-3.15 0.29,-2.75 z"
         style="fill:#6dbfb4;fill-opacity:1;fill-rule:nonzero;stroke:none"
         id="path38"
         inkscape:connector-curvature="0" /><path
         d="m 272.6,177.07 1.45,3.36 1.35,3.36 1.26,3.34 1.16,3.34 1.06,3.32 0.95,3.29 0.85,3.28 0.76,3.25 0.64,3.22 0.54,3.19 0.44,3.15 0.29,2.74 -1.79,0.09 -2.95,0.04 -3,-0.07 -3.05,-0.17 -3.09,-0.28 -3.13,-0.39 -3.17,-0.49 -3.2,-0.6 -3.24,-0.7 -3.26,-0.8 -3.29,-0.91 -2.15,-0.66 0.24,-0.29 2.47,-3.18 2.39,-3.21 2.33,-3.25 2.24,-3.27 2.17,-3.29 2.08,-3.31 2,-3.33 1.91,-3.35 1.82,-3.35 1.73,-3.37 1.64,-3.36 0.16,-0.36 z"
         style="fill:#bcc898;fill-opacity:1;fill-rule:nonzero;stroke:none"
         id="path40"
         inkscape:connector-curvature="0" /><path
         d="m 178.39,168.51 2.99,2.77 3.04,2.71 3.08,2.65 3.12,2.58 3.16,2.51 3.2,2.44 3.22,2.36 3.26,2.28 3.28,2.21 3.3,2.13 3.32,2.04 3.34,1.96 3.35,1.87 3.36,1.78 3.36,1.69 3.36,1.59 3.37,1.5 3.36,1.41 3.35,1.31 3.34,1.21 3.33,1.11 1.15,0.35 -2.31,2.85 -2.61,3.11 -2.67,3.06 -2.74,3.01 -2.8,2.97 -2.86,2.91 -2.91,2.86 -2.97,2.81 -3.01,2.74 -3.06,2.68 -3.1,2.61 -3.14,2.54 -3.18,2.48 -3.21,2.4 -3.24,2.32 -3.27,2.25 -3.29,2.17 -3.31,2.08 -3.33,2 -3.35,1.92 -3.35,1.82 -3.36,1.74 -3.37,1.64 -0.42,0.19 -2.12,-1 -3.36,-1.69 -3.36,-1.78 -3.35,-1.87 -3.33,-1.96 -3.32,-2.04 -3.31,-2.13 -3.28,-2.2 -3.25,-2.29 -3.23,-2.36 -3.19,-2.44 -3.16,-2.51 -3.12,-2.58 -3.09,-2.65 -3.03,-2.71 -2.99,-2.77 -2.94,-2.83 -2.88,-2.89 -2.83,-2.94 -2.77,-2.99 -2.71,-3.04 -2.65,-3.08 -2.57,-3.12 -1.02,-1.29 2.81,-0.89 3.33,-1.16 3.35,-1.26 3.35,-1.36 3.36,-1.46 3.37,-1.54 3.36,-1.65 3.36,-1.73 3.36,-1.83 3.34,-1.91 3.33,-2 3.31,-2.08 3.3,-2.17 3.26,-2.25 3.25,-2.32 3.21,-2.4 3.17,-2.48 3.15,-2.54 3.1,-2.62 3.06,-2.68 3.01,-2.74 2.72,-2.57 z"
         style="fill:#c2f588;fill-opacity:1;fill-rule:nonzero;stroke:none"
         id="path42"
         inkscape:connector-curvature="0" /><path
         d="m 229.85,67.46 1.79,0.09 -0.29,2.75 -0.44,3.15 -0.54,3.19 -0.65,3.22 -0.75,3.24 -0.85,3.28 -0.96,3.3 -1.06,3.32 -1.15,3.33 -1.26,3.35 -1.36,3.35 -1.45,3.37 -0.8,1.74 -3.09,-2.61 -3.14,-2.55 -3.18,-2.47 -3.21,-2.4 -3.24,-2.33 -3.27,-2.24 -3.29,-2.17 -3.31,-2.09 -3.33,-1.99 -3.35,-1.92 -3.35,-1.82 -3.36,-1.74 -3.37,-1.64 -0.42,-0.2 1.25,-0.59 3.36,-1.5 3.36,-1.41 3.36,-1.3 3.34,-1.21 3.32,-1.11 3.31,-1.01 3.29,-0.91 3.26,-0.81 3.23,-0.7 3.2,-0.59 3.17,-0.5 3.14,-0.38 3.09,-0.28 3.04,-0.18 3,-0.07 z"
         style="fill:#7892a3;fill-opacity:1;fill-rule:nonzero;stroke:none"
         id="path44"
         inkscape:connector-curvature="0" /><path
         d="m 128.93,67.44 3.03,0.13 3.06,0.22 3.12,0.34 3.15,0.44 3.18,0.54 3.22,0.65 3.25,0.75 3.28,0.86 3.29,0.96 3.32,1.06 3.33,1.16 3.35,1.26 3.36,1.36 3.36,1.45 2.94,1.35 -2.12,1.01 -3.36,1.69 -3.36,1.78 -3.35,1.87 -3.33,1.95 -3.32,2.05 -3.31,2.12 -3.28,2.21 -3.25,2.29 -3.23,2.36 -3.19,2.44 -3.16,2.51 -3.12,2.58 -1.55,1.32 -0.03,-0.07 -1.5,-3.36 -1.4,-3.37 L 130,98 l -1.21,-3.34 -1.1,-3.33 -1.01,-3.3 -0.91,-3.29 -0.8,-3.26 -0.7,-3.24 -0.59,-3.2 -0.49,-3.17 -0.38,-3.13 -0.11,-1.2 0.33,-0.02 2.92,-0.09 z"
         style="fill:#a79692;fill-opacity:1;fill-rule:nonzero;stroke:none"
         id="path46"
         inkscape:connector-curvature="0" /><path
         d="m 135.8,111.45 1.69,3.36 1.78,3.36 1.86,3.35 1.96,3.34 2.04,3.32 2.12,3.31 2.21,3.28 2.28,3.26 2.36,3.23 2.44,3.19 2.5,3.16 2.58,3.13 2.64,3.08 2.71,3.04 2.77,2.99 2.83,2.94 2.89,2.89 1.71,1.65 -2.72,2.57 -3.01,2.74 -3.06,2.68 -3.1,2.62 -3.15,2.54 -3.17,2.48 -3.21,2.4 -3.25,2.32 -3.26,2.25 -3.3,2.17 -3.31,2.08 -3.33,2 -3.34,1.91 -3.36,1.83 -3.36,1.73 -3.36,1.65 -3.37,1.54 -3.36,1.46 -3.35,1.36 -3.35,1.26 -3.33,1.16 -2.81,0.89 -1.49,-1.88 -2.43,-3.19 -2.37,-3.23 -2.28,-3.26 -2.2,-3.28 -2.13,-3.3 -2.04,-3.33 -1.95,-3.34 -1.87,-3.35 -1.77,-3.36 -1.69,-3.36 -0.97,-2.04 0.97,-2.03 1.69,-3.37 1.77,-3.36 1.87,-3.35 1.95,-3.34 2.04,-3.32 2.13,-3.3 2.2,-3.29 2.28,-3.25 2.37,-3.23 2.43,-3.2 2.51,-3.16 2.57,-3.12 2.65,-3.09 2.71,-3.03 2.77,-2.99 2.83,-2.95 2.88,-2.88 2.94,-2.83 2.99,-2.78 3.03,-2.71 1.54,-1.32 z"
         style="fill:#adb38a;fill-opacity:1;fill-rule:nonzero;stroke:none"
         id="path48"
         inkscape:connector-curvature="0" /><path
         d="m 220.09,108.14 3.06,2.68 3.01,2.74 2.97,2.8 2.91,2.86 2.86,2.92 2.8,2.96 2.74,3.02 2.67,3.06 2.61,3.1 2.55,3.15 2.47,3.18 2.39,3.21 2.33,3.24 2.24,3.27 2.17,3.3 2.08,3.31 2,3.33 1.91,3.35 1.82,3.35 1.73,3.36 1.64,3.37 0.16,0.35 -0.16,0.36 -1.64,3.36 -1.73,3.37 -1.82,3.35 -1.91,3.35 -2,3.33 -2.08,3.31 -2.17,3.29 -2.24,3.27 -2.33,3.25 -2.39,3.21 -2.47,3.18 -0.24,0.29 -1.15,-0.35 -3.33,-1.11 -3.34,-1.21 -3.35,-1.31 -3.36,-1.41 -3.37,-1.5 -3.36,-1.59 -3.36,-1.69 -3.36,-1.78 -3.35,-1.87 -3.34,-1.96 -3.32,-2.04 -3.3,-2.13 -3.28,-2.21 -3.26,-2.28 -3.22,-2.36 -3.2,-2.44 -3.16,-2.51 -3.12,-2.58 -3.08,-2.65 -3.04,-2.71 -2.99,-2.77 -1.22,-1.18 0.24,-0.23 2.91,-2.86 2.86,-2.91 2.8,-2.97 2.74,-3.02 2.68,-3.06 2.61,-3.1 2.54,-3.14 2.47,-3.18 2.4,-3.22 2.32,-3.24 2.25,-3.27 2.16,-3.29 2.08,-3.32 2,-3.33 1.91,-3.34 1.82,-3.36 1.74,-3.36 1.64,-3.37 0.74,-1.62 z"
         style="fill:#a8d49d;fill-opacity:1;fill-rule:nonzero;stroke:none"
         id="path50"
         inkscape:connector-curvature="0" /><path
         d="m 177.59,80.17 3.37,1.64 3.36,1.74 3.35,1.82 3.35,1.92 3.33,1.99 3.31,2.09 3.29,2.17 3.27,2.24 3.24,2.33 3.21,2.4 3.18,2.47 3.14,2.55 3.09,2.61 -0.74,1.62 -1.64,3.37 -1.74,3.36 -1.82,3.36 -1.91,3.34 -2,3.33 -2.08,3.32 -2.16,3.29 -2.25,3.27 -2.32,3.24 -2.4,3.22 -2.47,3.18 -2.54,3.14 -2.61,3.1 -2.68,3.06 -2.74,3.02 -2.8,2.97 -2.86,2.91 -2.91,2.86 -0.24,0.23 -1.71,-1.65 -2.89,-2.89 -2.83,-2.94 -2.77,-2.99 -2.71,-3.04 -2.64,-3.08 -2.58,-3.13 -2.5,-3.16 -2.44,-3.19 -2.36,-3.23 -2.28,-3.26 -2.21,-3.28 -2.12,-3.31 -2.04,-3.32 -1.96,-3.34 -1.86,-3.35 -1.78,-3.36 -1.69,-3.36 -1.56,-3.3 1.55,-1.32 3.12,-2.58 3.16,-2.51 3.19,-2.44 3.23,-2.36 3.25,-2.29 3.28,-2.21 3.31,-2.12 3.32,-2.05 3.33,-1.95 3.35,-1.87 3.36,-1.78 3.36,-1.69 2.12,-1.01 z"
         style="fill:#9fac97;fill-opacity:1;fill-rule:nonzero;stroke:none"
         id="path52"
         inkscape:connector-curvature="0" /><path
         d="m 180.32,164.24 -2.91,2.86 -2.96,2.8 -3.01,2.74 -3.06,2.68 -3.1,2.62 -3.15,2.54 -3.17,2.48 -3.21,2.4 -3.25,2.32 -3.26,2.25 -3.3,2.17 -3.31,2.08 -3.33,2 -3.34,1.91 -3.36,1.83 -3.36,1.73 -3.36,1.65 -3.37,1.54 -3.36,1.46 -3.35,1.36 -3.35,1.26 -3.33,1.16 -3.32,1.06 -3.3,0.95 -3.27,0.86 -3.25,0.75 -3.22,0.65 -3.19,0.55 -3.15,0.44 -3.11,0.33 -3.07,0.23 -3.02,0.12 -2.98,0.02 -2.93,-0.09 -2.87,-0.2 -2.81,-0.31 -2.76,-0.4 -2.69,-0.52 -2.63,-0.62 -2.56,-0.72 -2.49,-0.83 -2.42,-0.93 -2.34,-1.03 -2.26,-1.13 -2.19,-1.23 -2.1,-1.33 -2.02,-1.42 -1.93,-1.53 -1.85,-1.61 -1.75,-1.71 -1.67,-1.8 -1.57,-1.89 -1.47,-1.97 -1.38,-2.06 -1.28,-2.14 -1.19,-2.23 -1.08,-2.3 -0.98,-2.38 -0.88,-2.45 -0.78,-2.53 -0.67,-2.59 -0.57,-2.66 -0.46,-2.73 -0.36,-2.78 -0.25,-2.84 -0.15,-2.9 -0.04,-2.95 0.07,-3.01 0.17,-3.04 0.28,-3.1 0.38,-3.13 0.49,-3.17 0.59,-3.2 0.7,-3.23 0.81,-3.27 0.9,-3.28 1.01,-3.31 1.11,-3.33 1.2,-3.34 1.31,-3.35 1.4,-3.36 1.5,-3.37 1.59,-3.37 1.69,-3.36 1.78,-3.36 1.87,-3.35 1.95,-3.34 2.04,-3.32 2.12,-3.31 2.21,-3.28 2.28,-3.25 2.36,-3.23 2.44,-3.2 2.5,-3.16 2.58,-3.13 2.64,-3.08 2.71,-3.04 2.77,-2.99 2.83,-2.94 2.89,-2.89 2.94,-2.83 2.98,-2.77 3.04,-2.71 3.08,-2.65 3.12,-2.58 3.16,-2.51 3.2,-2.43 3.22,-2.37 3.26,-2.28 3.28,-2.21 3.3,-2.13 3.32,-2.04 3.34,-1.96 3.35,-1.86 3.36,-1.78 3.36,-1.69 3.37,-1.6 3.36,-1.5 3.36,-1.41 3.35,-1.31 3.34,-1.21 3.33,-1.11 3.3,-1.01 3.29,-0.9 3.26,-0.81 3.24,-0.7 3.2,-0.6 3.17,-0.49 3.13,-0.39 3.09,-0.28 3.05,-0.17 3,-0.07 2.95,0.04 2.9,0.14 2.84,0.25 2.79,0.36 2.72,0.46 2.67,0.57 2.59,0.67 2.52,0.77 2.46,0.88 2.38,0.98 2.3,1.08 2.23,1.18 2.14,1.28 2.06,1.38 1.98,1.47 1.89,1.57 1.8,1.67 1.71,1.75 1.61,1.84 1.53,1.93 1.43,2.02 1.33,2.1 1.23,2.19 1.13,2.26 1.03,2.34 0.94,2.42 0.82,2.49 0.73,2.56 0.62,2.63 0.52,2.69 0.41,2.75 0.3,2.82 0.2,2.87 0.1,2.92 -0.02,2.98 -0.12,3.03 -0.22,3.07 -0.33,3.11 -0.44,3.15 -0.54,3.19 -0.65,3.22 -0.75,3.24 -0.85,3.28 -0.96,3.3 -1.06,3.32 -1.15,3.33 -1.26,3.35 -1.36,3.35 -1.45,3.37 -1.54,3.36 -1.64,3.37 -1.74,3.36 -1.82,3.36 -1.91,3.34 -2,3.33 -2.08,3.32 -2.16,3.29 -2.25,3.27 -2.32,3.24 -2.4,3.22 -2.47,3.18 -2.54,3.14 -2.61,3.1 -2.68,3.06 -2.74,3.02 -2.8,2.97 -2.86,2.91"
         style="fill:none;stroke:#000000;stroke-width:0.75;stroke-linecap:round;stroke-linejoin:round;stroke-miterlimit:10;stroke-dasharray:none;stroke-opacity:1"
         id="path54"
         inkscape:connector-curvature="0" /><path
         d="m 283.75,54.58 2.86,2.92 2.8,2.96 2.74,3.02 2.68,3.06 2.61,3.1 2.54,3.14 2.47,3.18 2.4,3.22 2.32,3.24 2.25,3.27 2.16,3.29 2.08,3.32 2,3.33 1.91,3.34 1.82,3.36 1.73,3.36 1.64,3.37 1.55,3.36 1.45,3.37 1.36,3.35 1.25,3.35 1.16,3.34 1.06,3.31 0.96,3.3 0.85,3.28 0.75,3.25 0.65,3.22 0.54,3.18 0.43,3.15 0.34,3.12 0.22,3.07 0.12,3.02 0.01,2.98 -0.09,2.92 -0.2,2.87 -0.3,2.82 -0.41,2.75 -0.52,2.7 -0.62,2.62 -0.73,2.56 -0.83,2.49 -0.93,2.42 -1.03,2.34 -1.13,2.26 -1.23,2.19 -1.34,2.1 -1.42,2.02 -1.53,1.93 -1.61,1.84 -1.71,1.76 -1.8,1.66 -1.89,1.57 -1.98,1.47 -2.06,1.38 -2.14,1.28 -2.23,1.18 -2.3,1.08 -2.38,0.98 -2.46,0.88 -2.52,0.77 -2.6,0.68 -2.66,0.56 -2.72,0.46 -2.79,0.36 -2.84,0.25 -2.9,0.14 -2.95,0.04 -3,-0.07 -3.05,-0.17 -3.09,-0.28 -3.13,-0.39 -3.17,-0.49 -3.2,-0.6 -3.24,-0.7 -3.26,-0.8 -3.29,-0.91 -3.3,-1.01 -3.33,-1.11 -3.34,-1.21 -3.35,-1.31 -3.36,-1.41 -3.37,-1.5 -3.36,-1.59 -3.36,-1.69 -3.36,-1.78 -3.35,-1.87 -3.34,-1.96 -3.32,-2.04 -3.3,-2.13 -3.28,-2.21 -3.26,-2.28 -3.22,-2.36 -3.2,-2.44 -3.16,-2.51 -3.12,-2.58 -3.08,-2.65 -3.04,-2.71 -2.99,-2.77 -2.93,-2.83 -2.89,-2.89 -2.83,-2.94 -2.77,-2.99 -2.71,-3.04 -2.64,-3.08 -2.58,-3.13 -2.5,-3.16 -2.44,-3.19 -2.36,-3.23 -2.28,-3.26 -2.21,-3.28 -2.12,-3.31 -2.04,-3.32 -1.96,-3.34 -1.86,-3.35 -1.78,-3.36 -1.69,-3.36 -1.59,-3.37 -1.5,-3.36 -1.4,-3.37 L 130,98 l -1.21,-3.34 -1.1,-3.33 -1.01,-3.3 -0.91,-3.29 -0.8,-3.26 -0.7,-3.24 -0.59,-3.2 -0.49,-3.17 -0.38,-3.13 -0.28,-3.09 -0.18,-3.05 -0.06,-3 0.04,-2.96 0.15,-2.89 0.25,-2.85 0.36,-2.78 0.46,-2.73 0.57,-2.66 0.67,-2.59 0.78,-2.52 0.88,-2.46 0.98,-2.38 1.08,-2.3 1.19,-2.22 1.28,-2.15 1.38,-2.06 1.47,-1.97 1.57,-1.89 1.67,-1.8 1.75,-1.71 1.85,-1.61 1.93,-1.52 2.02,-1.43 2.1,-1.33 2.19,-1.23 2.26,-1.13 2.34,-1.03 2.42,-0.93 2.49,-0.83 2.56,-0.72 2.63,-0.62 2.69,-0.51 2.76,-0.41 2.81,-0.31 2.87,-0.19 2.93,-0.09 2.97,0.01 3.03,0.12 3.07,0.23 3.11,0.33 3.15,0.44 3.19,0.55 3.22,0.65 3.25,0.75 3.27,0.86 3.3,0.96 3.31,1.06 3.34,1.16 3.34,1.26 3.36,1.35 3.36,1.46 3.37,1.55 3.36,1.64 3.36,1.73 3.36,1.83 3.34,1.91 3.33,2 3.31,2.09 3.29,2.16 3.27,2.25 3.24,2.33 3.22,2.4 3.17,2.47 3.14,2.55 3.11,2.61 3.05,2.68 3.02,2.74 2.96,2.8 2.91,2.86"
         style="fill:none;stroke:#000000;stroke-width:0.75;stroke-linecap:round;stroke-linejoin:round;stroke-miterlimit:10;stroke-dasharray:none;stroke-opacity:1"
         id="path56"
         inkscape:connector-curvature="0" /><path
         d="m 232.04,228.88 -2.91,2.86 -2.97,2.81 -3.01,2.74 -3.06,2.68 -3.1,2.61 -3.14,2.54 -3.18,2.48 -3.21,2.4 -3.24,2.32 -3.27,2.25 -3.29,2.17 -3.31,2.08 -3.33,2 -3.35,1.92 -3.35,1.82 -3.36,1.74 -3.37,1.64 -3.36,1.55 -3.36,1.45 -3.36,1.36 -3.35,1.26 -3.33,1.16 -3.32,1.06 -3.29,0.96 -3.28,0.85 -3.25,0.76 -3.22,0.65 -3.18,0.54 -3.15,0.44 -3.12,0.33 -3.06,0.23 -3.03,0.12 -2.98,0.02 -2.92,-0.09 -2.87,-0.2 -2.82,-0.3 -2.75,-0.41 -2.7,-0.51 -2.62,-0.62 -2.56,-0.73 -2.49,-0.82 -2.42,-0.93 -2.34,-1.03 -2.27,-1.13 -2.18,-1.24 -2.11,-1.32 -2.01,-1.43 -1.94,-1.52 -1.84,-1.62 -1.76,-1.71 -1.66,-1.8 -1.57,-1.88 -1.48,-1.98 -1.38,-2.06 -1.28,-2.14 -1.18,-2.23 -1.08,-2.3 -0.99,-2.38 -0.88,-2.45 -0.77,-2.53 -0.68,-2.59 -0.57,-2.66 -0.46,-2.72 -0.36,-2.79 -0.25,-2.84 -0.15,-2.9 -0.04,-2.95 0.07,-3 0.17,-3.05 0.28,-3.09 0.39,-3.13 0.48,-3.17 0.6,-3.21 0.7,-3.23 0.8,-3.26 0.9,-3.29 1.01,-3.31 1.11,-3.33 1.21,-3.34 1.3,-3.35 1.41,-3.36 1.5,-3.37 1.59,-3.36 1.69,-3.37 1.77,-3.36 1.87,-3.35 1.95,-3.34 2.04,-3.32 2.13,-3.3 2.2,-3.29 2.28,-3.25 2.37,-3.23 2.43,-3.2 2.51,-3.16 2.57,-3.12 2.65,-3.09 2.71,-3.03 2.77,-2.99 2.83,-2.95 2.88,-2.88 2.94,-2.83 2.99,-2.78 3.03,-2.71 3.09,-2.64 3.12,-2.58 3.16,-2.51 3.19,-2.44 3.23,-2.36 3.25,-2.29 3.28,-2.21 3.31,-2.12 3.32,-2.05 3.33,-1.95 3.35,-1.87 3.36,-1.78 3.36,-1.69 3.37,-1.6 3.36,-1.5 3.36,-1.41 3.36,-1.3 3.34,-1.21 3.32,-1.11 3.31,-1.01 3.29,-0.91 3.26,-0.81 3.23,-0.7 3.2,-0.59 3.17,-0.5 3.14,-0.38 3.09,-0.28 3.04,-0.18 3,-0.07 2.96,0.04 2.9,0.14 2.84,0.25 2.78,0.36 2.73,0.46 2.66,0.57 2.59,0.67 2.53,0.77 2.45,0.88 2.38,0.98 2.31,1.08 2.22,1.18 2.15,1.29 2.06,1.37 1.97,1.48 1.89,1.57 1.8,1.66 1.71,1.75 1.62,1.85 1.52,1.93 1.43,2.02 1.33,2.1 1.23,2.18 1.14,2.26 1.03,2.35 0.93,2.41 0.83,2.49 0.72,2.56 0.62,2.63 0.52,2.69 0.41,2.76 0.31,2.81 0.2,2.87 0.09,2.93 -0.01,2.97 -0.12,3.03 -0.23,3.07 -0.33,3.11 -0.44,3.15 -0.54,3.19 -0.64,3.22 -0.76,3.25 -0.85,3.27 -0.95,3.3 -1.06,3.32 -1.16,3.33 -1.26,3.35 -1.35,3.36 -1.45,3.36 -1.55,3.37 -1.64,3.36 -1.73,3.37 -1.82,3.35 -1.91,3.35 -2,3.33 -2.08,3.31 -2.17,3.29 -2.24,3.27 -2.33,3.25 -2.39,3.21 -2.47,3.18 -2.55,3.14 -2.61,3.11 -2.67,3.06 -2.74,3.01 -2.8,2.97 -2.86,2.91"
         style="fill:none;stroke:#000000;stroke-width:0.75;stroke-linecap:round;stroke-linejoin:round;stroke-miterlimit:10;stroke-dasharray:none;stroke-opacity:1"
         id="path58"
         inkscape:connector-curvature="0" /><path
         d="m 232.04,119.22 2.86,2.92 2.8,2.96 2.74,3.02 2.67,3.06 2.61,3.1 2.55,3.15 2.47,3.18 2.39,3.21 2.33,3.24 2.24,3.27 2.17,3.3 2.08,3.31 2,3.33 1.91,3.35 1.82,3.35 1.73,3.36 1.64,3.37 1.55,3.37 1.45,3.36 1.35,3.36 1.26,3.34 1.16,3.34 1.06,3.32 0.95,3.29 0.85,3.28 0.76,3.25 0.64,3.22 0.54,3.19 0.44,3.15 0.33,3.11 0.23,3.07 0.12,3.02 0.01,2.98 -0.09,2.93 -0.2,2.87 -0.31,2.81 -0.41,2.76 -0.52,2.69 -0.62,2.63 -0.72,2.56 -0.83,2.49 -0.93,2.41 -1.03,2.34 -1.14,2.27 -1.23,2.18 -1.33,2.1 -1.43,2.02 -1.52,1.93 -1.62,1.85 -1.71,1.75 -1.8,1.66 -1.89,1.57 -1.97,1.47 -2.06,1.38 -2.15,1.28 -2.22,1.18 -2.31,1.09 -2.38,0.98 -2.45,0.87 -2.53,0.78 -2.59,0.67 -2.66,0.57 -2.73,0.46 -2.78,0.35 -2.84,0.25 -2.9,0.15 -2.96,0.03 -3,-0.06 -3.04,-0.18 -3.09,-0.28 -3.14,-0.39 -3.17,-0.49 -3.2,-0.6 -3.23,-0.7 -3.26,-0.8 -3.29,-0.91 -3.31,-1.01 -3.32,-1.11 -3.34,-1.21 -3.36,-1.31 -3.36,-1.4 -3.36,-1.51 -3.37,-1.59 -3.36,-1.69 -3.36,-1.78 -3.35,-1.87 -3.33,-1.96 -3.32,-2.04 -3.31,-2.13 -3.28,-2.2 -3.25,-2.29 -3.23,-2.36 -3.19,-2.44 -3.16,-2.51 -3.12,-2.58 -3.09,-2.65 -3.03,-2.71 -2.99,-2.77 -2.94,-2.83 -2.88,-2.89 -2.83,-2.94 -2.77,-2.99 -2.71,-3.04 -2.65,-3.08 -2.57,-3.12 -2.51,-3.17 -2.43,-3.19 -2.37,-3.23 -2.28,-3.26 -2.2,-3.28 -2.13,-3.3 -2.04,-3.33 -1.95,-3.34 -1.87,-3.35 -1.77,-3.36 -1.69,-3.36 -1.59,-3.37 -1.5,-3.36 -1.41,-3.36 -1.3,-3.35 -1.21,-3.35 -1.11,-3.32 -1.01,-3.31 -0.9,-3.29 -0.8,-3.26 -0.7,-3.24 -0.6,-3.2 -0.48,-3.17 -0.39,-3.13 -0.28,-3.09 -0.17,-3.05 -0.07,-3 0.04,-2.95 0.15,-2.9 0.25,-2.84 0.36,-2.79 0.46,-2.72 0.57,-2.66 0.68,-2.6 0.77,-2.52 0.88,-2.46 0.99,-2.37 1.08,-2.31 1.18,-2.22 1.28,-2.14 1.38,-2.06 1.48,-1.98 1.57,-1.89 1.66,-1.8 1.76,-1.7 1.84,-1.62 1.94,-1.52 2.01,-1.43 2.11,-1.33 2.18,-1.23 2.27,-1.13 2.34,-1.03 2.42,-0.93 2.49,-0.83 2.56,-0.72 2.62,-0.62 2.7,-0.51 2.75,-0.41 2.82,-0.3 2.87,-0.2 2.92,-0.09 2.98,0.01 3.03,0.13 3.06,0.22 3.12,0.34 3.15,0.44 3.18,0.54 3.22,0.65 3.25,0.75 3.28,0.86 3.29,0.96 3.32,1.06 3.33,1.16 3.35,1.26 3.36,1.36 3.36,1.45 3.36,1.55 3.37,1.64 3.36,1.74 3.35,1.82 3.35,1.92 3.33,1.99 3.31,2.09 3.29,2.17 3.27,2.24 3.24,2.33 3.21,2.4 3.18,2.47 3.14,2.55 3.1,2.61 3.06,2.68 3.01,2.74 2.97,2.8 2.91,2.86"
         style="fill:none;stroke:#000000;stroke-width:0.75;stroke-linecap:round;stroke-linejoin:round;stroke-miterlimit:10;stroke-dasharray:none;stroke-opacity:1"
         id="path60"
         inkscape:connector-curvature="0" /></g><g
       id="g138" /><g
       id="g140" /><g
       id="g142" /><g
       id="g144" /><g
       id="g146" /><g
       id="g148"><path
         d="m 531.4,2.8 -2.33,0.08 -2.87,0.19 -2.81,0.31 -2.76,0.41 -2.69,0.51 -2.63,0.62 -2.56,0.72 -2.49,0.83 -2.42,0.93 -2.34,1.03 -2.26,1.13 -2.19,1.23 -2.1,1.33 -2.02,1.43 -1.93,1.52 -1.85,1.61 -1.75,1.71 -1.67,1.8 -1.57,1.89 -1.47,1.97 -1.38,2.06 -1.28,2.15 -1.19,2.22 -1.08,2.3 -0.98,2.38 -0.88,2.46 -0.78,2.52 -0.67,2.59 -0.57,2.66 -0.46,2.73 -0.36,2.78 -0.25,2.85 -0.15,2.89 -0.04,2.96 0.07,3 0.17,3.05 0.17,1.89 -2.54,0.18 -2.82,0.3 -2.75,0.41 -2.7,0.51 -2.62,0.62 -2.56,0.72 -2.49,0.83 -2.42,0.93 -2.34,1.03 -2.27,1.13 -2.18,1.23 -2.1,1.33 -2.02,1.43 -1.94,1.52 -1.84,1.62 -1.76,1.7 -1.66,1.8 -1.57,1.89 -1.48,1.98 -1.38,2.06 -1.28,2.14 -1.18,2.22 -1.08,2.31 -0.99,2.37 -0.88,2.46 -0.77,2.52 -0.68,2.6 -0.56,2.66 -0.47,2.72 -0.36,2.79 -0.25,2.84 -0.14,2.9 -0.04,2.95 0.06,3 0.17,3.05 0.28,3.09 0.39,3.13 0.49,3.17 0.59,3.2 0.7,3.24 0.8,3.26 0.91,3.29 1,3.31 1.11,3.32 1.21,3.35 1.3,3.35 1.41,3.36 1.5,3.36 0.63,1.33 -0.63,1.33 -1.5,3.37 -1.41,3.36 -1.3,3.35 -1.21,3.34 -1.11,3.33 -1,3.31 -0.91,3.29 -0.8,3.26 -0.7,3.23 -0.59,3.21 -0.49,3.17 -0.39,3.13 -0.11,1.19 -2.54,-0.17 -2.81,-0.31 -2.76,-0.4 -2.69,-0.52 -2.63,-0.62 -2.56,-0.72 -2.49,-0.83 -2.41,-0.93 -2.35,-1.03 -2.26,-1.13 -2.19,-1.23 -2.1,-1.33 -2.02,-1.42 -1.93,-1.53 -1.85,-1.61 -1.75,-1.71 -1.66,-1.8 -1.58,-1.89 -1.47,-1.97 -1.38,-2.06 -1.28,-2.14 -1.19,-2.23 -1.08,-2.3 -0.98,-2.38 -0.88,-2.45 -0.78,-2.53 -0.67,-2.59 -0.57,-2.66 -0.46,-2.73 -0.36,-2.78 -0.25,-2.84 -0.15,-2.9 -0.04,-2.95 0.07,-3.01 0.17,-3.04 0.28,-3.1 0.38,-3.13 0.49,-3.17 0.6,-3.2 0.69,-3.23 0.81,-3.27 0.9,-3.28 1.01,-3.31 1.11,-3.33 1.2,-3.34 1.31,-3.35 1.4,-3.36 1.5,-3.37 1.6,-3.37 1.68,-3.36 1.78,-3.36 1.87,-3.35 1.95,-3.34 2.04,-3.32 2.12,-3.31 2.21,-3.28 2.28,-3.25 2.36,-3.23 2.44,-3.2 2.5,-3.16 2.58,-3.13 2.65,-3.08 2.7,-3.04 2.77,-2.99 2.83,-2.94 2.89,-2.89 2.94,-2.83 2.99,-2.77 3.03,-2.71 3.08,-2.65 3.12,-2.58 3.16,-2.51 3.2,-2.43 3.22,-2.37 3.26,-2.28 3.28,-2.21 3.3,-2.13 3.32,-2.04 3.34,-1.96 3.35,-1.86 3.36,-1.78 3.36,-1.69 3.37,-1.6 3.36,-1.5 3.36,-1.41 3.35,-1.31 3.34,-1.21 3.33,-1.11 3.31,-1.01 3.28,-0.9 3.26,-0.81 3.24,-0.7 3.2,-0.6 3.17,-0.49 3.13,-0.39 3.09,-0.28 3.05,-0.17 3,-0.07 z"
         style="fill:#6eeaa8;fill-opacity:1;fill-rule:nonzero;stroke:none"
         id="path154"
         inkscape:connector-curvature="0" /><path
         d="m 534.98,2.8 3.02,0.12 3.07,0.23 3.11,0.33 3.15,0.44 3.19,0.55 3.22,0.65 3.25,0.75 3.27,0.86 3.3,0.96 3.32,1.06 3.33,1.16 3.35,1.26 3.35,1.35 3.36,1.46 3.37,1.55 3.36,1.64 3.36,1.73 3.36,1.83 3.34,1.91 3.33,2 3.31,2.09 3.3,2.16 3.26,2.25 3.24,2.33 3.22,2.4 3.17,2.47 3.14,2.55 3.11,2.61 3.05,2.68 3.02,2.74 2.96,2.8 2.91,2.86 2.86,2.92 2.8,2.96 2.74,3.02 2.68,3.06 2.61,3.1 2.54,3.14 2.47,3.18 2.4,3.22 2.32,3.24 2.25,3.27 2.16,3.29 2.08,3.32 2,3.33 1.91,3.34 1.82,3.36 1.74,3.36 1.64,3.37 1.54,3.36 1.45,3.37 1.36,3.35 1.25,3.35 1.16,3.34 1.06,3.31 0.96,3.3 0.85,3.28 0.75,3.25 0.65,3.22 0.54,3.18 0.44,3.15 0.33,3.12 0.22,3.07 0.12,3.02 0.01,2.98 -0.09,2.92 -0.2,2.87 -0.3,2.82 -0.41,2.75 -0.52,2.7 -0.62,2.62 -0.73,2.56 -0.82,2.49 -0.94,2.42 -1.03,2.34 -1.13,2.26 -1.23,2.19 -1.34,2.1 -1.42,2.02 -1.53,1.93 -1.61,1.84 -1.71,1.76 -1.8,1.66 -1.89,1.57 -1.98,1.47 -2.06,1.38 -2.14,1.28 -2.23,1.18 -2.3,1.08 -2.38,0.98 -2.46,0.88 -2.52,0.77 -2.6,0.68 -2.66,0.56 -2.72,0.46 -2.79,0.36 -2.84,0.25 -1.11,0.05 -0.29,-2.74 -0.44,-3.15 -0.54,-3.19 -0.64,-3.22 -0.75,-3.25 -0.86,-3.28 -0.95,-3.29 -1.06,-3.32 -1.16,-3.34 -1.26,-3.34 -1.35,-3.36 -1.45,-3.36 -1.39,-3.02 1.39,-3.01 1.45,-3.36 1.35,-3.36 1.26,-3.35 1.16,-3.33 1.06,-3.32 0.95,-3.3 0.86,-3.27 0.75,-3.25 0.64,-3.22 0.54,-3.19 0.44,-3.15 0.33,-3.11 0.23,-3.07 0.12,-3.03 0.01,-2.97 -0.09,-2.93 -0.2,-2.87 -0.31,-2.81 -0.41,-2.76 -0.51,-2.69 -0.63,-2.63 -0.72,-2.56 -0.83,-2.49 -0.93,-2.41 -1.03,-2.35 -1.14,-2.26 -1.23,-2.18 -1.33,-2.1 -1.43,-2.02 -1.52,-1.93 -1.62,-1.85 -1.71,-1.75 -1.8,-1.66 -1.89,-1.57 -1.97,-1.48 -2.06,-1.37 -2.15,-1.29 -2.22,-1.18 -2.31,-1.08 -2.38,-0.98 -2.45,-0.88 -2.53,-0.77 -2.59,-0.67 -2.66,-0.57 -2.72,-0.46 -2.79,-0.36 -2.84,-0.25 -1.11,-0.05 0.04,-0.36 0.22,-3.07 0.12,-3.03 0.02,-2.98 -0.1,-2.92 -0.2,-2.87 -0.3,-2.82 -0.41,-2.75 -0.52,-2.69 -0.62,-2.63 -0.72,-2.56 -0.83,-2.49 -0.93,-2.42 -1.04,-2.34 -1.13,-2.26 -1.23,-2.19 -1.33,-2.1 -1.43,-2.02 -1.52,-1.93 -1.62,-1.84 -1.71,-1.75 -1.8,-1.67 -1.89,-1.57 -1.98,-1.47 L 563,11.44 560.86,10.16 558.63,8.98 556.33,7.9 553.95,6.92 551.5,6.04 548.97,5.27 546.38,4.6 543.72,4.03 540.99,3.57 538.21,3.21 535.36,2.96 532.46,2.82 531.4,2.8 532,2.79 Z"
         style="fill:#6396be;fill-opacity:1;fill-rule:nonzero;stroke:none"
         id="path156"
         inkscape:connector-curvature="0" /><path
         d="m 461.66,212.26 2.58,3.12 2.64,3.08 2.71,3.04 2.77,2.99 2.83,2.94 2.88,2.89 2.94,2.83 2.99,2.77 3.04,2.71 3.08,2.65 3.12,2.58 3.16,2.51 3.19,2.44 3.23,2.36 3.25,2.29 3.28,2.2 3.31,2.13 3.32,2.04 3.34,1.96 3.34,1.87 3.36,1.78 3.37,1.69 2.11,1 -2.94,1.36 -3.36,1.45 -3.36,1.36 -3.35,1.26 -3.33,1.16 -3.32,1.06 -3.29,0.96 -3.28,0.85 -3.25,0.76 -3.22,0.65 -3.18,0.54 -3.15,0.44 -3.11,0.33 -3.07,0.23 -3.03,0.12 -2.98,0.02 -2.92,-0.09 -2.87,-0.2 -2.82,-0.3 -2.75,-0.41 -2.7,-0.51 -2.62,-0.62 -2.56,-0.73 -2.49,-0.82 -2.42,-0.93 -2.34,-1.03 -2.27,-1.13 -2.18,-1.24 -2.1,-1.32 -2.02,-1.43 -1.94,-1.52 -1.84,-1.62 -1.76,-1.71 -1.66,-1.8 -1.57,-1.88 -1.48,-1.98 -1.38,-2.06 -1.28,-2.14 -1.18,-2.23 -1.08,-2.3 -0.99,-2.38 -0.88,-2.45 -0.77,-2.53 -0.68,-2.59 -0.56,-2.66 -0.47,-2.72 -0.36,-2.79 -0.25,-2.84 -0.14,-2.9 -0.04,-2.95 0.06,-3 0.17,-3.05 0.17,-1.9 0.33,0.03 2.93,0.09 2.98,-0.02 3.02,-0.12 3.07,-0.23 3.11,-0.33 3.15,-0.44 3.19,-0.55 3.22,-0.65 3.25,-0.75 3.27,-0.86 3.3,-0.95 0.51,-0.17 z"
         style="fill:#723281;fill-opacity:1;fill-rule:nonzero;stroke:none"
         id="path158"
         inkscape:connector-curvature="0" /><path
         d="m 604.51,211.63 3.29,0.91 3.26,0.8 3.24,0.7 3.2,0.6 3.17,0.49 3.13,0.39 3.09,0.28 3.05,0.17 3,0.07 2.95,-0.04 1.79,-0.09 0.04,0.37 0.23,3.07 0.12,3.02 0.01,2.98 -0.09,2.93 -0.2,2.87 -0.31,2.81 -0.41,2.76 -0.51,2.69 -0.63,2.63 -0.72,2.56 -0.83,2.49 -0.93,2.41 -1.03,2.34 -1.14,2.27 -1.23,2.18 -1.33,2.1 -1.43,2.02 -1.52,1.93 -1.62,1.85 -1.71,1.75 -1.8,1.66 -1.89,1.57 -1.97,1.47 -2.06,1.38 -2.15,1.28 -2.22,1.18 -2.31,1.09 -2.38,0.98 -2.45,0.87 -2.53,0.78 -2.59,0.67 -2.66,0.57 -2.72,0.46 -2.79,0.35 -2.84,0.25 -2.9,0.15 -2.95,0.03 -3.01,-0.06 -3.04,-0.18 -3.09,-0.28 -3.14,-0.39 -3.16,-0.49 -3.21,-0.6 -3.23,-0.7 -3.26,-0.8 -3.29,-0.91 -3.31,-1.01 -3.32,-1.11 -3.34,-1.21 -3.36,-1.31 -3.36,-1.4 -3.36,-1.51 -1.25,-0.59 0.42,-0.19 3.37,-1.64 3.36,-1.74 3.35,-1.82 3.35,-1.92 3.33,-2 3.31,-2.08 3.29,-2.17 3.27,-2.25 3.24,-2.32 3.21,-2.4 3.18,-2.48 3.14,-2.54 3.1,-2.61 3.06,-2.68 3.01,-2.74 2.97,-2.81 2.91,-2.86 2.86,-2.91 2.8,-2.97 2.74,-3.01 2.67,-3.06 2.61,-3.11 2.31,-2.85 z"
         style="fill:#ffff63;fill-opacity:1;fill-rule:nonzero;stroke:none"
         id="path160"
         inkscape:connector-curvature="0" /><path
         d="m 532.46,2.82 2.9,0.14 2.85,0.25 2.78,0.36 2.73,0.46 2.66,0.57 2.59,0.67 2.53,0.77 2.45,0.88 2.38,0.98 2.3,1.08 2.23,1.18 2.14,1.28 2.06,1.38 1.98,1.47 1.89,1.57 1.8,1.67 1.71,1.75 1.62,1.84 1.52,1.93 1.43,2.02 1.33,2.1 1.23,2.19 1.13,2.26 1.04,2.34 0.93,2.42 0.83,2.49 0.72,2.56 0.62,2.63 0.52,2.69 0.41,2.75 0.3,2.82 0.2,2.87 0.1,2.92 -0.02,2.98 -0.12,3.03 -0.22,3.07 -0.04,0.36 -1.79,-0.09 -2.95,-0.04 -3.01,0.07 -3.04,0.18 -3.09,0.28 -3.14,0.38 -3.16,0.5 -3.21,0.59 -3.23,0.7 -3.26,0.81 -3.29,0.91 -3.31,1.01 -3.32,1.11 -3.34,1.21 -3.36,1.3 -3.36,1.41 -3.36,1.5 -1.25,0.59 -2.94,-1.35 -3.36,-1.45 -3.36,-1.36 -3.35,-1.26 -3.33,-1.16 -3.32,-1.06 -3.29,-0.96 -3.28,-0.86 -3.25,-0.75 -3.22,-0.65 -3.18,-0.54 -3.15,-0.44 -3.11,-0.34 -3.07,-0.22 -3.03,-0.13 -2.98,-0.01 -2.92,0.09 -0.33,0.02 -0.17,-1.89 -0.17,-3.05 -0.07,-3 0.04,-2.96 0.15,-2.89 0.25,-2.85 0.36,-2.78 0.46,-2.73 0.57,-2.66 0.67,-2.59 0.78,-2.52 0.88,-2.46 0.98,-2.38 1.08,-2.3 1.19,-2.22 1.28,-2.15 1.38,-2.06 1.47,-1.97 1.57,-1.89 1.67,-1.8 1.75,-1.71 1.85,-1.61 1.93,-1.52 2.02,-1.43 2.1,-1.33 2.19,-1.23 2.26,-1.13 2.34,-1.03 2.42,-0.93 2.49,-0.83 2.56,-0.72 2.63,-0.62 2.69,-0.51 2.76,-0.41 2.81,-0.31 2.87,-0.19 2.33,-0.08 z"
         style="fill:#6dbfb4;fill-opacity:1;fill-rule:nonzero;stroke:none"
         id="path162"
         inkscape:connector-curvature="0" /><path
         d="m 438.42,176.09 1.69,3.36 1.77,3.36 1.87,3.35 1.95,3.34 2.04,3.33 2.13,3.3 2.2,3.28 2.29,3.26 2.36,3.23 2.43,3.19 1.49,1.88 -0.51,0.17 -3.3,0.95 -3.27,0.86 -3.25,0.75 -3.22,0.65 -3.19,0.55 -3.15,0.44 -3.11,0.33 -3.07,0.23 -3.02,0.12 -2.98,0.02 -2.93,-0.09 -0.33,-0.03 0.11,-1.19 0.39,-3.13 0.49,-3.17 0.59,-3.21 0.7,-3.23 0.8,-3.26 0.91,-3.29 1,-3.31 1.11,-3.33 1.21,-3.34 1.3,-3.35 1.41,-3.36 1.5,-3.37 0.63,-1.33 z"
         style="fill:#809096;fill-opacity:1;fill-rule:nonzero;stroke:none"
         id="path164"
         inkscape:connector-curvature="0" /><path
         d="m 477.14,68.74 0.38,3.13 0.49,3.17 0.59,3.2 0.7,3.24 0.8,3.26 0.91,3.29 1.01,3.3 1.1,3.33 1.21,3.34 1.31,3.35 1.4,3.37 1.5,3.36 0.03,0.07 -1.53,1.32 -3.04,2.71 -2.99,2.78 -2.94,2.83 -2.88,2.88 -2.83,2.95 -2.77,2.99 -2.71,3.03 -2.64,3.09 -2.58,3.12 -2.51,3.16 -2.43,3.2 -2.36,3.23 -2.29,3.25 -2.2,3.29 -2.13,3.3 -2.04,3.32 -1.95,3.34 -1.87,3.35 -1.77,3.36 -1.69,3.37 -0.96,2.03 -0.63,-1.33 -1.5,-3.36 -1.41,-3.36 -1.3,-3.35 -1.21,-3.35 -1.11,-3.32 -1,-3.31 -0.91,-3.29 -0.8,-3.26 -0.7,-3.24 -0.59,-3.2 -0.49,-3.17 -0.39,-3.13 -0.28,-3.09 -0.17,-3.05 -0.06,-3 0.04,-2.95 0.14,-2.9 0.25,-2.84 0.36,-2.79 0.47,-2.72 0.56,-2.66 0.68,-2.6 0.77,-2.52 0.88,-2.46 0.99,-2.37 1.08,-2.31 1.18,-2.22 1.28,-2.14 1.38,-2.06 1.48,-1.98 1.57,-1.89 1.66,-1.8 1.76,-1.7 1.84,-1.62 1.94,-1.52 2.02,-1.43 2.1,-1.33 2.18,-1.23 2.27,-1.13 2.34,-1.03 2.42,-0.93 2.49,-0.83 2.56,-0.72 2.62,-0.62 2.7,-0.51 2.75,-0.41 2.82,-0.3 2.54,-0.18 z"
         style="fill:#c2f588;fill-opacity:1;fill-rule:nonzero;stroke:none"
         id="path166"
         inkscape:connector-curvature="0" /><path
         d="m 587.08,67.6 2.84,0.25 2.79,0.36 2.72,0.46 2.66,0.57 2.59,0.67 2.53,0.77 2.45,0.88 2.38,0.98 2.31,1.08 2.22,1.18 2.15,1.29 2.06,1.37 1.97,1.48 1.89,1.57 1.8,1.66 1.71,1.75 1.62,1.85 1.52,1.93 1.43,2.02 1.33,2.1 1.23,2.18 1.14,2.26 1.03,2.35 0.93,2.41 0.83,2.49 0.72,2.56 0.63,2.63 0.51,2.69 0.41,2.76 0.31,2.81 0.2,2.87 0.09,2.93 -0.01,2.97 -0.12,3.03 -0.23,3.07 -0.33,3.11 -0.44,3.15 -0.54,3.19 -0.64,3.22 -0.75,3.25 -0.86,3.27 -0.95,3.3 -1.06,3.32 -1.16,3.33 -1.26,3.35 -1.35,3.36 -1.45,3.36 -1.39,3.01 -0.16,-0.35 -1.64,-3.37 -1.73,-3.36 -1.82,-3.35 -1.91,-3.35 -2,-3.33 -2.08,-3.31 -2.17,-3.3 -2.24,-3.27 -2.32,-3.24 -2.4,-3.21 -2.47,-3.18 -2.55,-3.15 -2.61,-3.1 -2.67,-3.06 -2.74,-3.02 -2.8,-2.96 -2.86,-2.92 -2.91,-2.86 -2.97,-2.8 -3.01,-2.74 -3.06,-2.68 h -0.01 l 0.8,-1.74 1.45,-3.37 1.36,-3.35 1.26,-3.35 1.15,-3.33 1.06,-3.32 0.96,-3.3 0.85,-3.28 0.75,-3.24 0.65,-3.22 0.54,-3.19 0.44,-3.15 0.29,-2.75 z"
         style="fill:#71669f;fill-opacity:1;fill-rule:nonzero;stroke:none"
         id="path168"
         inkscape:connector-curvature="0" /><path
         d="m 626.93,177.07 1.45,3.36 1.35,3.36 1.26,3.34 1.16,3.34 1.06,3.32 0.95,3.29 0.86,3.28 0.75,3.25 0.64,3.22 0.54,3.19 0.44,3.15 0.29,2.74 -1.79,0.09 -2.95,0.04 -3,-0.07 -3.05,-0.17 -3.09,-0.28 -3.13,-0.39 -3.17,-0.49 -3.2,-0.6 -3.24,-0.7 -3.26,-0.8 -3.29,-0.91 -2.15,-0.66 0.24,-0.29 2.47,-3.18 2.4,-3.21 2.32,-3.25 2.24,-3.27 2.17,-3.29 2.08,-3.31 2,-3.33 1.91,-3.35 1.82,-3.35 1.73,-3.37 1.64,-3.36 0.16,-0.36 z"
         style="fill:#bcc898;fill-opacity:1;fill-rule:nonzero;stroke:none"
         id="path170"
         inkscape:connector-curvature="0" /><path
         d="m 532.73,168.51 2.98,2.77 3.04,2.71 3.08,2.65 3.12,2.58 3.16,2.51 3.2,2.44 3.22,2.36 3.26,2.28 3.28,2.21 3.3,2.13 3.32,2.04 3.34,1.96 3.35,1.87 3.36,1.78 3.36,1.69 3.36,1.59 3.37,1.5 3.36,1.41 3.35,1.31 3.34,1.21 3.33,1.11 1.15,0.35 -2.31,2.85 -2.61,3.11 -2.67,3.06 -2.74,3.01 -2.8,2.97 -2.86,2.91 -2.91,2.86 -2.97,2.81 -3.01,2.74 -3.06,2.68 -3.1,2.61 -3.14,2.54 -3.18,2.48 -3.21,2.4 -3.24,2.32 -3.27,2.25 -3.29,2.17 -3.31,2.08 -3.33,2 -3.35,1.92 -3.35,1.82 -3.36,1.74 -3.37,1.64 -0.42,0.19 -2.11,-1 -3.37,-1.69 -3.36,-1.78 -3.34,-1.87 -3.34,-1.96 -3.32,-2.04 -3.31,-2.13 -3.28,-2.2 -3.25,-2.29 -3.23,-2.36 -3.19,-2.44 -3.16,-2.51 -3.12,-2.58 -3.08,-2.65 -3.04,-2.71 -2.99,-2.77 -2.94,-2.83 -2.88,-2.89 -2.83,-2.94 -2.77,-2.99 -2.71,-3.04 -2.64,-3.08 -2.58,-3.12 -1.02,-1.29 2.81,-0.89 3.33,-1.16 3.35,-1.26 3.35,-1.36 3.36,-1.46 3.37,-1.54 3.36,-1.65 3.37,-1.73 3.35,-1.83 3.34,-1.91 3.33,-2 3.31,-2.08 3.3,-2.17 3.26,-2.25 3.25,-2.32 3.21,-2.4 3.17,-2.48 3.15,-2.54 3.1,-2.62 3.06,-2.68 3.01,-2.74 2.72,-2.57 z"
         style="fill:#be967b;fill-opacity:1;fill-rule:nonzero;stroke:none"
         id="path172"
         inkscape:connector-curvature="0" /><path
         d="m 584.18,67.46 1.79,0.09 -0.29,2.75 -0.44,3.15 -0.54,3.19 -0.65,3.22 -0.75,3.24 -0.85,3.28 -0.96,3.3 -1.06,3.32 -1.15,3.33 -1.26,3.35 -1.36,3.35 -1.45,3.37 -0.8,1.74 -3.09,-2.61 -3.14,-2.55 -3.18,-2.47 -3.21,-2.4 -3.24,-2.33 -3.27,-2.24 -3.29,-2.17 -3.31,-2.09 -3.33,-1.99 -3.35,-1.92 -3.35,-1.82 -3.36,-1.74 -3.37,-1.64 -0.42,-0.2 1.25,-0.59 3.36,-1.5 3.36,-1.41 3.36,-1.3 3.34,-1.21 3.32,-1.11 3.31,-1.01 3.29,-0.91 3.26,-0.81 3.23,-0.7 3.21,-0.59 3.16,-0.5 3.14,-0.38 3.09,-0.28 3.04,-0.18 3.01,-0.07 z"
         style="fill:#7892a3;fill-opacity:1;fill-rule:nonzero;stroke:none"
         id="path174"
         inkscape:connector-curvature="0" /><path
         d="m 483.26,67.44 3.03,0.13 3.07,0.22 3.11,0.34 3.15,0.44 3.18,0.54 3.22,0.65 3.25,0.75 3.28,0.86 3.29,0.96 3.32,1.06 3.33,1.16 3.35,1.26 3.36,1.36 3.36,1.45 2.94,1.35 -2.11,1.01 -3.37,1.69 -3.36,1.78 -3.34,1.87 -3.34,1.95 -3.32,2.05 -3.31,2.12 -3.28,2.21 -3.25,2.29 -3.23,2.36 -3.19,2.44 -3.16,2.51 -3.12,2.58 -1.55,1.32 -0.03,-0.07 -1.5,-3.36 -1.4,-3.37 -1.31,-3.35 -1.21,-3.34 -1.1,-3.33 -1.01,-3.3 -0.91,-3.29 -0.8,-3.26 -0.7,-3.24 -0.59,-3.2 -0.49,-3.17 -0.38,-3.13 -0.11,-1.2 0.33,-0.02 2.92,-0.09 z"
         style="fill:#a8d49d;fill-opacity:1;fill-rule:nonzero;stroke:none"
         id="path176"
         inkscape:connector-curvature="0" /><path
         d="m 490.13,111.45 1.69,3.36 1.78,3.36 1.86,3.35 1.96,3.34 2.04,3.32 2.12,3.31 2.21,3.28 2.28,3.26 2.36,3.23 2.44,3.19 2.5,3.16 2.58,3.13 2.64,3.08 2.71,3.04 2.77,2.99 2.83,2.94 2.89,2.89 1.71,1.65 -2.72,2.57 -3.01,2.74 -3.06,2.68 -3.1,2.62 -3.15,2.54 -3.17,2.48 -3.21,2.4 -3.25,2.32 -3.26,2.25 -3.3,2.17 -3.31,2.08 -3.33,2 -3.34,1.91 -3.35,1.83 -3.37,1.73 -3.36,1.65 -3.37,1.54 -3.36,1.46 -3.35,1.36 -3.35,1.26 -3.33,1.16 -2.81,0.89 -1.49,-1.88 -2.43,-3.19 -2.36,-3.23 -2.29,-3.26 -2.2,-3.28 -2.13,-3.3 -2.04,-3.33 -1.95,-3.34 -1.87,-3.35 -1.77,-3.36 -1.69,-3.36 -0.96,-2.04 0.96,-2.03 1.69,-3.37 1.77,-3.36 1.87,-3.35 1.95,-3.34 2.04,-3.32 2.13,-3.3 2.2,-3.29 2.29,-3.25 2.36,-3.23 2.43,-3.2 2.51,-3.16 2.58,-3.12 2.64,-3.09 2.71,-3.03 2.77,-2.99 2.83,-2.95 2.88,-2.88 2.94,-2.83 2.99,-2.78 3.04,-2.71 1.53,-1.32 z"
         style="fill:#adb38a;fill-opacity:1;fill-rule:nonzero;stroke:none"
         id="path178"
         inkscape:connector-curvature="0" /><path
         d="m 574.42,108.14 3.06,2.68 3.01,2.74 2.97,2.8 2.91,2.86 2.86,2.92 2.8,2.96 2.74,3.02 2.67,3.06 2.61,3.1 2.55,3.15 2.47,3.18 2.4,3.21 2.32,3.24 2.24,3.27 2.17,3.3 2.08,3.31 2,3.33 1.91,3.35 1.82,3.35 1.73,3.36 1.64,3.37 0.16,0.35 -0.16,0.36 -1.64,3.36 -1.73,3.37 -1.82,3.35 -1.91,3.35 -2,3.33 -2.08,3.31 -2.17,3.29 -2.24,3.27 -2.32,3.25 -2.4,3.21 -2.47,3.18 -0.24,0.29 -1.15,-0.35 -3.33,-1.11 -3.34,-1.21 -3.35,-1.31 -3.36,-1.41 -3.37,-1.5 -3.36,-1.59 -3.36,-1.69 -3.36,-1.78 -3.35,-1.87 -3.34,-1.96 -3.32,-2.04 -3.3,-2.13 -3.28,-2.21 -3.26,-2.28 -3.22,-2.36 -3.2,-2.44 -3.16,-2.51 -3.12,-2.58 -3.08,-2.65 -3.04,-2.71 -2.98,-2.77 -1.23,-1.18 0.24,-0.23 2.91,-2.86 2.86,-2.91 2.8,-2.97 2.74,-3.02 2.68,-3.06 2.61,-3.1 2.54,-3.14 2.47,-3.18 2.4,-3.22 2.32,-3.24 2.25,-3.27 2.16,-3.29 2.08,-3.32 2,-3.33 1.91,-3.34 1.82,-3.36 1.74,-3.36 1.64,-3.37 0.74,-1.62 z"
         style="fill:#a79692;fill-opacity:1;fill-rule:nonzero;stroke:none"
         id="path180"
         inkscape:connector-curvature="0" /><path
         d="m 531.92,80.17 3.37,1.64 3.36,1.74 3.35,1.82 3.35,1.92 3.33,1.99 3.31,2.09 3.29,2.17 3.27,2.24 3.24,2.33 3.21,2.4 3.18,2.47 3.14,2.55 3.09,2.61 -0.74,1.62 -1.64,3.37 -1.74,3.36 -1.82,3.36 -1.91,3.34 -2,3.33 -2.08,3.32 -2.16,3.29 -2.25,3.27 -2.32,3.24 -2.4,3.22 -2.47,3.18 -2.54,3.14 -2.61,3.1 -2.68,3.06 -2.74,3.02 -2.8,2.97 -2.86,2.91 -2.91,2.86 -0.24,0.23 -1.71,-1.65 -2.89,-2.89 -2.83,-2.94 -2.77,-2.99 -2.71,-3.04 -2.64,-3.08 -2.58,-3.13 -2.5,-3.16 -2.44,-3.19 -2.36,-3.23 -2.28,-3.26 -2.21,-3.28 -2.12,-3.31 -2.04,-3.32 -1.96,-3.34 -1.86,-3.35 -1.78,-3.36 -1.69,-3.36 -1.56,-3.3 1.55,-1.32 3.12,-2.58 3.16,-2.51 3.19,-2.44 3.23,-2.36 3.25,-2.29 3.28,-2.21 3.31,-2.12 3.32,-2.05 3.34,-1.95 3.34,-1.87 3.36,-1.78 3.37,-1.69 2.11,-1.01 z"
         style="fill:#9fac97;fill-opacity:1;fill-rule:nonzero;stroke:none"
         id="path182"
         inkscape:connector-curvature="0" /><path
         d="m 534.65,164.24 -2.91,2.86 -2.96,2.8 -3.01,2.74 -3.06,2.68 -3.1,2.62 -3.15,2.54 -3.17,2.48 -3.21,2.4 -3.25,2.32 -3.26,2.25 -3.3,2.17 -3.31,2.08 -3.33,2 -3.34,1.91 -3.35,1.83 -3.37,1.73 -3.36,1.65 -3.37,1.54 -3.36,1.46 -3.35,1.36 -3.35,1.26 -3.33,1.16 -3.32,1.06 -3.3,0.95 -3.27,0.86 -3.25,0.75 -3.22,0.65 -3.19,0.55 -3.15,0.44 -3.11,0.33 -3.07,0.23 -3.02,0.12 -2.98,0.02 -2.93,-0.09 -2.87,-0.2 -2.81,-0.31 -2.76,-0.4 -2.69,-0.52 -2.63,-0.62 -2.56,-0.72 -2.49,-0.83 -2.41,-0.93 -2.35,-1.03 -2.26,-1.13 -2.19,-1.23 -2.1,-1.33 -2.02,-1.42 -1.93,-1.53 -1.85,-1.61 -1.75,-1.71 -1.66,-1.8 -1.58,-1.89 -1.47,-1.97 -1.38,-2.06 -1.28,-2.14 -1.19,-2.23 -1.08,-2.3 -0.98,-2.38 -0.88,-2.45 -0.78,-2.53 -0.67,-2.59 -0.57,-2.66 -0.46,-2.73 -0.36,-2.78 -0.25,-2.84 -0.15,-2.9 -0.04,-2.95 0.07,-3.01 0.17,-3.04 0.28,-3.1 0.38,-3.13 0.49,-3.17 0.6,-3.2 0.69,-3.23 0.81,-3.27 0.9,-3.28 1.01,-3.31 1.11,-3.33 1.2,-3.34 1.31,-3.35 1.4,-3.36 1.5,-3.37 1.6,-3.37 1.68,-3.36 1.78,-3.36 1.87,-3.35 1.95,-3.34 2.04,-3.32 2.12,-3.31 2.21,-3.28 2.28,-3.25 2.36,-3.23 2.44,-3.2 2.5,-3.16 2.58,-3.13 2.65,-3.08 2.7,-3.04 2.77,-2.99 2.83,-2.94 2.89,-2.89 2.94,-2.83 2.99,-2.77 3.03,-2.71 3.08,-2.65 3.12,-2.58 3.16,-2.51 3.2,-2.43 3.22,-2.37 3.26,-2.28 3.28,-2.21 3.3,-2.13 3.32,-2.04 3.34,-1.96 3.35,-1.86 3.36,-1.78 3.36,-1.69 3.37,-1.6 3.36,-1.5 3.36,-1.41 3.35,-1.31 3.34,-1.21 3.33,-1.11 3.31,-1.01 3.28,-0.9 3.26,-0.81 3.24,-0.7 3.2,-0.6 3.17,-0.49 3.13,-0.39 3.09,-0.28 3.05,-0.17 3,-0.07 2.95,0.04 2.9,0.14 2.85,0.25 2.78,0.36 2.73,0.46 2.66,0.57 2.59,0.67 2.53,0.77 2.45,0.88 2.38,0.98 2.3,1.08 2.23,1.18 2.14,1.28 2.06,1.38 1.98,1.47 1.89,1.57 1.8,1.67 1.71,1.75 1.62,1.84 1.52,1.93 1.43,2.02 1.33,2.1 1.23,2.19 1.13,2.26 1.04,2.34 0.93,2.42 0.83,2.49 0.72,2.56 0.62,2.63 0.52,2.69 0.41,2.75 0.3,2.82 0.2,2.87 0.1,2.92 -0.02,2.98 -0.12,3.03 -0.22,3.07 -0.33,3.11 -0.44,3.15 -0.54,3.19 -0.65,3.22 -0.75,3.24 -0.85,3.28 -0.96,3.3 -1.06,3.32 -1.15,3.33 -1.26,3.35 -1.36,3.35 -1.45,3.37 -1.54,3.36 -1.64,3.37 -1.74,3.36 -1.82,3.36 -1.91,3.34 -2,3.33 -2.08,3.32 -2.16,3.29 -2.25,3.27 -2.32,3.24 -2.4,3.22 -2.47,3.18 -2.54,3.14 -2.61,3.1 -2.68,3.06 -2.74,3.02 -2.8,2.97 -2.86,2.91"
         style="fill:none;stroke:#000000;stroke-width:0.75;stroke-linecap:round;stroke-linejoin:round;stroke-miterlimit:10;stroke-dasharray:none;stroke-opacity:1"
         id="path184"
         inkscape:connector-curvature="0" /><path
         d="m 638.08,54.58 2.86,2.92 2.8,2.96 2.74,3.02 2.68,3.06 2.61,3.1 2.54,3.14 2.47,3.18 2.4,3.22 2.32,3.24 2.25,3.27 2.16,3.29 2.08,3.32 2,3.33 1.91,3.34 1.82,3.36 1.74,3.36 1.64,3.37 1.54,3.36 1.45,3.37 1.36,3.35 1.25,3.35 1.16,3.34 1.06,3.31 0.96,3.3 0.85,3.28 0.75,3.25 0.65,3.22 0.54,3.18 0.44,3.15 0.33,3.12 0.22,3.07 0.12,3.02 0.01,2.98 -0.09,2.92 -0.2,2.87 -0.3,2.82 -0.41,2.75 -0.52,2.7 -0.62,2.62 -0.73,2.56 -0.82,2.49 -0.94,2.42 -1.03,2.34 -1.13,2.26 -1.23,2.19 -1.34,2.1 -1.42,2.02 -1.53,1.93 -1.61,1.84 -1.71,1.76 -1.8,1.66 -1.89,1.57 -1.98,1.47 -2.06,1.38 -2.14,1.28 -2.23,1.18 -2.3,1.08 -2.38,0.98 -2.46,0.88 -2.52,0.77 -2.6,0.68 -2.66,0.56 -2.72,0.46 -2.79,0.36 -2.84,0.25 -2.9,0.14 -2.95,0.04 -3,-0.07 -3.05,-0.17 -3.09,-0.28 -3.13,-0.39 -3.17,-0.49 -3.2,-0.6 -3.24,-0.7 -3.26,-0.8 -3.29,-0.91 -3.3,-1.01 -3.33,-1.11 -3.34,-1.21 -3.35,-1.31 -3.36,-1.41 -3.37,-1.5 -3.36,-1.59 -3.36,-1.69 -3.36,-1.78 -3.35,-1.87 -3.34,-1.96 -3.32,-2.04 -3.3,-2.13 -3.28,-2.21 -3.26,-2.28 -3.22,-2.36 -3.2,-2.44 -3.16,-2.51 -3.12,-2.58 -3.08,-2.65 -3.04,-2.71 -2.98,-2.77 -2.94,-2.83 -2.89,-2.89 -2.83,-2.94 -2.77,-2.99 -2.71,-3.04 -2.64,-3.08 -2.58,-3.13 -2.5,-3.16 -2.44,-3.19 -2.36,-3.23 -2.28,-3.26 -2.21,-3.28 -2.12,-3.31 -2.04,-3.32 -1.96,-3.34 -1.86,-3.35 -1.78,-3.36 -1.69,-3.36 -1.59,-3.37 -1.5,-3.36 -1.4,-3.37 -1.31,-3.35 -1.21,-3.34 -1.1,-3.33 -1.01,-3.3 -0.91,-3.29 -0.8,-3.26 -0.7,-3.24 -0.59,-3.2 -0.49,-3.17 -0.38,-3.13 -0.28,-3.09 -0.17,-3.05 -0.07,-3 0.04,-2.96 0.15,-2.89 0.25,-2.85 0.36,-2.78 0.46,-2.73 0.57,-2.66 0.67,-2.59 0.78,-2.52 0.88,-2.46 0.98,-2.38 1.08,-2.3 1.19,-2.22 1.28,-2.15 1.38,-2.06 1.47,-1.97 1.57,-1.89 1.67,-1.8 1.75,-1.71 1.85,-1.61 1.93,-1.52 2.02,-1.43 2.1,-1.33 2.19,-1.23 2.26,-1.13 2.34,-1.03 2.42,-0.93 2.49,-0.83 2.56,-0.72 2.63,-0.62 2.69,-0.51 2.76,-0.41 2.81,-0.31 2.87,-0.19 2.93,-0.09 2.98,0.01 3.02,0.12 3.07,0.23 3.11,0.33 3.15,0.44 3.19,0.55 3.22,0.65 3.25,0.75 3.27,0.86 3.3,0.96 3.32,1.06 3.33,1.16 3.35,1.26 3.35,1.35 3.36,1.46 3.37,1.55 3.36,1.64 3.36,1.73 3.36,1.83 3.34,1.91 3.33,2 3.31,2.09 3.3,2.16 3.26,2.25 3.24,2.33 3.22,2.4 3.17,2.47 3.14,2.55 3.11,2.61 3.05,2.68 3.02,2.74 2.96,2.8 2.91,2.86"
         style="fill:none;stroke:#000000;stroke-width:0.75;stroke-linecap:round;stroke-linejoin:round;stroke-miterlimit:10;stroke-dasharray:none;stroke-opacity:1"
         id="path186"
         inkscape:connector-curvature="0" /><path
         d="m 586.37,228.88 -2.91,2.86 -2.97,2.81 -3.01,2.74 -3.06,2.68 -3.1,2.61 -3.14,2.54 -3.18,2.48 -3.21,2.4 -3.24,2.32 -3.27,2.25 -3.29,2.17 -3.31,2.08 -3.33,2 -3.35,1.92 -3.35,1.82 -3.36,1.74 -3.37,1.64 -3.36,1.55 -3.36,1.45 -3.36,1.36 -3.35,1.26 -3.33,1.16 -3.32,1.06 -3.29,0.96 -3.28,0.85 -3.25,0.76 -3.22,0.65 -3.18,0.54 -3.15,0.44 -3.11,0.33 -3.07,0.23 -3.03,0.12 -2.98,0.02 -2.92,-0.09 -2.87,-0.2 -2.82,-0.3 -2.75,-0.41 -2.7,-0.51 -2.62,-0.62 -2.56,-0.73 -2.49,-0.82 -2.42,-0.93 -2.34,-1.03 -2.27,-1.13 -2.18,-1.24 -2.1,-1.32 -2.02,-1.43 -1.94,-1.52 -1.84,-1.62 -1.76,-1.71 -1.66,-1.8 -1.57,-1.88 -1.48,-1.98 -1.38,-2.06 -1.28,-2.14 -1.18,-2.23 -1.08,-2.3 -0.99,-2.38 -0.88,-2.45 -0.77,-2.53 -0.68,-2.59 -0.56,-2.66 -0.47,-2.72 -0.36,-2.79 -0.25,-2.84 -0.14,-2.9 -0.04,-2.95 0.06,-3 0.17,-3.05 0.28,-3.09 0.39,-3.13 0.49,-3.17 0.59,-3.21 0.7,-3.23 0.8,-3.26 0.91,-3.29 1,-3.31 1.11,-3.33 1.21,-3.34 1.3,-3.35 1.41,-3.36 1.5,-3.37 1.59,-3.36 1.69,-3.37 1.77,-3.36 1.87,-3.35 1.95,-3.34 2.04,-3.32 2.13,-3.3 2.2,-3.29 2.29,-3.25 2.36,-3.23 2.43,-3.2 2.51,-3.16 2.58,-3.12 2.64,-3.09 2.71,-3.03 2.77,-2.99 2.83,-2.95 2.88,-2.88 2.94,-2.83 2.99,-2.78 3.04,-2.71 3.08,-2.64 3.12,-2.58 3.16,-2.51 3.19,-2.44 3.23,-2.36 3.25,-2.29 3.28,-2.21 3.31,-2.12 3.32,-2.05 3.34,-1.95 3.34,-1.87 3.36,-1.78 3.37,-1.69 3.36,-1.6 3.36,-1.5 3.36,-1.41 3.36,-1.3 3.34,-1.21 3.32,-1.11 3.31,-1.01 3.29,-0.91 3.26,-0.81 3.23,-0.7 3.21,-0.59 3.16,-0.5 3.14,-0.38 3.09,-0.28 3.04,-0.18 3.01,-0.07 2.95,0.04 2.9,0.14 2.84,0.25 2.79,0.36 2.72,0.46 2.66,0.57 2.59,0.67 2.53,0.77 2.45,0.88 2.38,0.98 2.31,1.08 2.22,1.18 2.15,1.29 2.06,1.37 1.97,1.48 1.89,1.57 1.8,1.66 1.71,1.75 1.62,1.85 1.52,1.93 1.43,2.02 1.33,2.1 1.23,2.18 1.14,2.26 1.03,2.35 0.93,2.41 0.83,2.49 0.72,2.56 0.63,2.63 0.51,2.69 0.41,2.76 0.31,2.81 0.2,2.87 0.09,2.93 -0.01,2.97 -0.12,3.03 -0.23,3.07 -0.33,3.11 -0.44,3.15 -0.54,3.19 -0.64,3.22 -0.75,3.25 -0.86,3.27 -0.95,3.3 -1.06,3.32 -1.16,3.33 -1.26,3.35 -1.35,3.36 -1.45,3.36 -1.55,3.37 -1.64,3.36 -1.73,3.37 -1.82,3.35 -1.91,3.35 -2,3.33 -2.08,3.31 -2.17,3.29 -2.24,3.27 -2.32,3.25 -2.4,3.21 -2.47,3.18 -2.55,3.14 -2.61,3.11 -2.67,3.06 -2.74,3.01 -2.8,2.97 -2.86,2.91"
         style="fill:none;stroke:#000000;stroke-width:0.75;stroke-linecap:round;stroke-linejoin:round;stroke-miterlimit:10;stroke-dasharray:none;stroke-opacity:1"
         id="path188"
         inkscape:connector-curvature="0" /><path
         d="m 586.37,119.22 2.86,2.92 2.8,2.96 2.74,3.02 2.67,3.06 2.61,3.1 2.55,3.15 2.47,3.18 2.4,3.21 2.32,3.24 2.24,3.27 2.17,3.3 2.08,3.31 2,3.33 1.91,3.35 1.82,3.35 1.73,3.36 1.64,3.37 1.55,3.37 1.45,3.36 1.35,3.36 1.26,3.34 1.16,3.34 1.06,3.32 0.95,3.29 0.86,3.28 0.75,3.25 0.64,3.22 0.54,3.19 0.44,3.15 0.33,3.11 0.23,3.07 0.12,3.02 0.01,2.98 -0.09,2.93 -0.2,2.87 -0.31,2.81 -0.41,2.76 -0.51,2.69 -0.63,2.63 -0.72,2.56 -0.83,2.49 -0.93,2.41 -1.03,2.34 -1.14,2.27 -1.23,2.18 -1.33,2.1 -1.43,2.02 -1.52,1.93 -1.62,1.85 -1.71,1.75 -1.8,1.66 -1.89,1.57 -1.97,1.47 -2.06,1.38 -2.15,1.28 -2.22,1.18 -2.31,1.09 -2.38,0.98 -2.45,0.87 -2.53,0.78 -2.59,0.67 -2.66,0.57 -2.72,0.46 -2.79,0.35 -2.84,0.25 -2.9,0.15 -2.95,0.03 -3.01,-0.06 -3.04,-0.18 -3.09,-0.28 -3.14,-0.39 -3.16,-0.49 -3.21,-0.6 -3.23,-0.7 -3.26,-0.8 -3.29,-0.91 -3.31,-1.01 -3.32,-1.11 -3.34,-1.21 -3.36,-1.31 -3.36,-1.4 -3.36,-1.51 -3.36,-1.59 -3.37,-1.69 -3.36,-1.78 -3.34,-1.87 -3.34,-1.96 -3.32,-2.04 -3.31,-2.13 -3.28,-2.2 -3.25,-2.29 -3.23,-2.36 -3.19,-2.44 -3.16,-2.51 -3.12,-2.58 -3.08,-2.65 -3.04,-2.71 -2.99,-2.77 -2.94,-2.83 -2.88,-2.89 -2.83,-2.94 -2.77,-2.99 -2.71,-3.04 -2.64,-3.08 -2.58,-3.12 -2.51,-3.17 -2.43,-3.19 -2.36,-3.23 -2.29,-3.26 -2.2,-3.28 -2.13,-3.3 -2.04,-3.33 -1.95,-3.34 -1.87,-3.35 -1.77,-3.36 -1.69,-3.36 -1.59,-3.37 -1.5,-3.36 -1.41,-3.36 -1.3,-3.35 -1.21,-3.35 -1.11,-3.32 -1,-3.31 -0.91,-3.29 -0.8,-3.26 -0.7,-3.24 -0.59,-3.2 -0.49,-3.17 -0.39,-3.13 -0.28,-3.09 -0.17,-3.05 -0.06,-3 0.04,-2.95 0.14,-2.9 0.25,-2.84 0.36,-2.79 0.47,-2.72 0.56,-2.66 0.68,-2.6 0.77,-2.52 0.88,-2.46 0.99,-2.37 1.08,-2.31 1.18,-2.22 1.28,-2.14 1.38,-2.06 1.48,-1.98 1.57,-1.89 1.66,-1.8 1.76,-1.7 1.84,-1.62 1.94,-1.52 2.02,-1.43 2.1,-1.33 2.18,-1.23 2.27,-1.13 2.34,-1.03 2.42,-0.93 2.49,-0.83 2.56,-0.72 2.62,-0.62 2.7,-0.51 2.75,-0.41 2.82,-0.3 2.87,-0.2 2.92,-0.09 2.98,0.01 3.03,0.13 3.07,0.22 3.11,0.34 3.15,0.44 3.18,0.54 3.22,0.65 3.25,0.75 3.28,0.86 3.29,0.96 3.32,1.06 3.33,1.16 3.35,1.26 3.36,1.36 3.36,1.45 3.36,1.55 3.37,1.64 3.36,1.74 3.35,1.82 3.35,1.92 3.33,1.99 3.31,2.09 3.29,2.17 3.27,2.24 3.24,2.33 3.21,2.4 3.18,2.47 3.14,2.55 3.1,2.61 3.06,2.68 3.01,2.74 2.97,2.8 2.91,2.86"
         style="fill:none;stroke:#000000;stroke-width:0.75;stroke-linecap:round;stroke-linejoin:round;stroke-miterlimit:10;stroke-dasharray:none;stroke-opacity:1"
         id="path190"
         inkscape:connector-curvature="0" /></g><g
       id="g268" /><g
       id="g270" /><g
       id="g272" /><g
       id="g274" /><g
       id="g276" /><g
       id="g278" /><g
       id="g284" /><g
       id="g286" /><g
       id="g288" /><g
       id="g290" /><g
       id="g292" /><g
       id="g294" /><g
       id="g296" /><g
       id="g298" /><g
       id="g300" /><g
       id="g302" /><g
       id="g304" /><g
       id="g306" /><g
       id="g308" /><g
       id="g310" /><g
       id="g312" /><g
       id="g314" /><g
       id="g316" /><g
       id="g318" /><g
       id="g320" /><g
       id="g322" /><g
       id="g324" /><g
       id="g326" /><g
       id="g328" /><g
       id="g330" /><g
       id="g332" /><g
       id="g334" /><g
       id="g336" /><g
       id="g338" /><g
       id="g340" /><g
       id="g342" /><g
       id="g344" /><g
       id="g346" /><g
       id="g348" /><g
       id="g350" /><g
       id="g352" /><g
       id="g354" /><g
       id="g356" /><g
       id="g358" /><g
       id="g360" /><g
       id="g362" /><g
       id="g364" /><g
       id="g366" /><g
       id="g368" /><g
       id="g370" /></g><g
     inkscape:groupmode="layer"
     id="layer1"
     inkscape:label="labels"><text
       style="font-style:normal;font-variant:normal;font-weight:bold;font-stretch:normal;font-size:14.66666698px;font-family:Helvetica;-inkscape-font-specification:'Helvetica, Bold';font-variant-ligatures:normal;font-variant-caps:normal;font-variant-numeric:normal;font-feature-settings:normal;text-align:start;writing-mode:lr-tb;text-anchor:start;fill:#000000;fill-opacity:1;fill-rule:nonzero;stroke:none;stroke-width:1.33333325"
       id="text64"
       x="29.604332"
       y="170.81868"><tspan
         x="29.604332 41.15633 45.604332 54.500332 63.076332 71.972328 76.420326 82.644325 91.540329"
         y="170.81868"
         sodipodi:role="line"
         id="tspan62"
         style="font-style:normal;font-variant:normal;font-weight:bold;font-stretch:normal;font-size:14.66666698px;font-family:Helvetica;-inkscape-font-specification:'Helvetica, Bold';font-variant-ligatures:normal;font-variant-caps:normal;font-variant-numeric:normal;font-feature-settings:normal;text-align:start;writing-mode:lr-tb;text-anchor:start;stroke-width:1.33333325">Black rat</tspan></text>
<text
       transform="matrix(1.3333333,0,0,1.3333333,59.093332,151.94667)"
       style="font-variant:normal;font-weight:normal;font-size:12px;font-family:Helvetica;-inkscape-font-specification:Helvetica;writing-mode:lr-tb;fill:#000000;fill-opacity:1;fill-rule:nonzero;stroke:none"
       id="text68"><tspan
         x="0 6.6719999"
         y="0"
         sodipodi:role="line"
         id="tspan66">71</tspan></text>
<text
       style="font-style:normal;font-variant:normal;font-weight:bold;font-stretch:normal;font-size:14.66666698px;font-family:Helvetica;-inkscape-font-specification:'Helvetica, Bold';font-variant-ligatures:normal;font-variant-caps:normal;font-variant-numeric:normal;font-feature-settings:normal;text-align:start;writing-mode:lr-tb;text-anchor:start;fill:#000000;fill-opacity:1;fill-rule:nonzero;stroke:none;stroke-width:1.33333325"
       id="text72"
       x="376.2121"
       y="168.17418"><tspan
         sodipodi:role="line"
         id="tspan4397"
         x="376.2121"
         y="168.17418"
         style="font-style:normal;font-variant:normal;font-weight:bold;font-stretch:normal;font-size:14.66666698px;font-family:Helvetica;-inkscape-font-specification:'Helvetica, Bold';font-variant-ligatures:normal;font-variant-caps:normal;font-variant-numeric:normal;font-feature-settings:normal;text-align:start;writing-mode:lr-tb;text-anchor:start;stroke-width:1.33333325">Brush tail</tspan><tspan
         sodipodi:role="line"
         id="tspan4399"
         x="376.2121"
         y="186.50751"
         style="font-style:normal;font-variant:normal;font-weight:bold;font-stretch:normal;font-size:14.66666698px;font-family:Helvetica;-inkscape-font-specification:'Helvetica, Bold';font-variant-ligatures:normal;font-variant-caps:normal;font-variant-numeric:normal;font-feature-settings:normal;text-align:start;writing-mode:lr-tb;text-anchor:start;stroke-width:1.33333325">possum</tspan></text>
<text
       style="font-variant:normal;font-weight:normal;font-size:12px;font-family:Helvetica;-inkscape-font-specification:Helvetica;writing-mode:lr-tb;fill:#000000;fill-opacity:1;fill-rule:nonzero;stroke:none"
       id="text76"
       transform="matrix(1.3333333,0,0,1.3333333,391.03999,151.66667)"><tspan
         x="0 6.6719999 13.344"
         y="0"
         sodipodi:role="line"
         id="tspan74">172</tspan></text>
<text
       style="font-style:normal;font-variant:normal;font-weight:bold;font-stretch:normal;font-size:14.66666698px;font-family:Helvetica;-inkscape-font-specification:'Helvetica, Bold';font-variant-ligatures:normal;font-variant-caps:normal;font-variant-numeric:normal;font-feature-settings:normal;text-align:start;writing-mode:lr-tb;text-anchor:start;fill:#000000;fill-opacity:1;fill-rule:nonzero;stroke:none;stroke-width:1.33333325"
       id="text80"
       x="116.01934"
       y="30.862171"><tspan
         sodipodi:role="line"
         id="tspan4391"
         x="116.01934"
         y="30.862171"
         style="font-style:normal;font-variant:normal;font-weight:bold;font-stretch:normal;font-size:14.66666698px;font-family:Helvetica;-inkscape-font-specification:'Helvetica, Bold';font-variant-ligatures:normal;font-variant-caps:normal;font-variant-numeric:normal;font-feature-settings:normal;text-align:start;writing-mode:lr-tb;text-anchor:start;stroke-width:1.33333325">Longnosed</tspan><tspan
         sodipodi:role="line"
         id="tspan4393"
         x="116.01934"
         y="49.195503"
         style="font-style:normal;font-variant:normal;font-weight:bold;font-stretch:normal;font-size:14.66666698px;font-family:Helvetica;-inkscape-font-specification:'Helvetica, Bold';font-variant-ligatures:normal;font-variant-caps:normal;font-variant-numeric:normal;font-feature-settings:normal;text-align:start;writing-mode:lr-tb;text-anchor:start;stroke-width:1.33333325">bandicoot</tspan></text>
<text
       style="font-variant:normal;font-weight:normal;font-size:16px;font-family:Helvetica;-inkscape-font-specification:Helvetica;writing-mode:lr-tb;fill:#000000;fill-opacity:1;fill-rule:nonzero;stroke:none;stroke-width:1.33333325"
       id="text84"
       x="131.15117"
       y="72.611595"><tspan
         x="131.15117 140.04716"
         y="72.611595"
         sodipodi:role="line"
         id="tspan82"
         style="stroke-width:1.33333325">49</tspan></text>
<text
       style="font-style:normal;font-variant:normal;font-weight:bold;font-stretch:normal;font-size:16px;font-family:Helvetica;-inkscape-font-specification:'Helvetica, Bold';font-variant-ligatures:normal;font-variant-caps:normal;font-variant-numeric:normal;font-feature-settings:normal;text-align:start;writing-mode:lr-tb;text-anchor:start;fill:#000000;fill-opacity:1;fill-rule:nonzero;stroke:none;stroke-width:1.33333325"
       id="text88"
       x="290.22858"
       y="40.22892"><tspan
         sodipodi:role="line"
         id="tspan4403"
         style="font-style:normal;font-variant:normal;font-weight:bold;font-stretch:normal;font-size:14.66666698px;font-family:Helvetica;-inkscape-font-specification:'Helvetica, Bold';font-variant-ligatures:normal;font-variant-caps:normal;font-variant-numeric:normal;font-feature-settings:normal;text-align:start;writing-mode:lr-tb;text-anchor:start"
         x="290.22858"
         y="40.22892">Chuditch</tspan></text>
<text
       transform="matrix(1.3333333,0,0,1.3333333,324.54666,58.213338)"
       style="font-variant:normal;font-weight:normal;font-size:12px;font-family:Helvetica;-inkscape-font-specification:Helvetica;writing-mode:lr-tb;fill:#000000;fill-opacity:1;fill-rule:nonzero;stroke:none"
       id="text92"><tspan
         x="0 6.6719999 13.344"
         y="0"
         sodipodi:role="line"
         id="tspan90">410</tspan></text>
<text
       transform="matrix(1.3333333,0,0,1.3333333,230.94666,329.49333)"
       style="font-variant:normal;font-weight:normal;font-size:12px;font-family:Helvetica;-inkscape-font-specification:Helvetica;writing-mode:lr-tb;fill:#000000;fill-opacity:1;fill-rule:nonzero;stroke:none"
       id="text96"><tspan
         x="0"
         y="0"
         id="tspan94">9</tspan></text>
<text
       transform="matrix(1.3333333,0,0,1.3333333,110.8,112.73334)"
       style="font-variant:normal;font-weight:normal;font-size:12px;font-family:Helvetica;-inkscape-font-specification:Helvetica;writing-mode:lr-tb;fill:#000000;fill-opacity:1;fill-rule:nonzero;stroke:none"
       id="text100"><tspan
         x="0"
         y="0"
         id="tspan98">5</tspan></text>
<text
       transform="matrix(1.3333333,0,0,1.3333333,125,242.61333)"
       style="font-variant:normal;font-weight:normal;font-size:12px;font-family:Helvetica;-inkscape-font-specification:Helvetica;writing-mode:lr-tb;fill:#000000;fill-opacity:1;fill-rule:nonzero;stroke:none"
       id="text104"><tspan
         x="0 6.6719999"
         y="0"
         sodipodi:role="line"
         id="tspan102">12</tspan></text>
<text
       transform="matrix(1.3333333,0,0,1.3333333,334.09332,242.61333)"
       style="font-variant:normal;font-weight:normal;font-size:12px;font-family:Helvetica;-inkscape-font-specification:Helvetica;writing-mode:lr-tb;fill:#000000;fill-opacity:1;fill-rule:nonzero;stroke:none"
       id="text108"><tspan
         x="0"
         y="0"
         id="tspan106">4</tspan></text>
<text
       transform="matrix(1.3333333,0,0,1.3333333,352.74666,112.73334)"
       style="font-variant:normal;font-weight:normal;font-size:12px;font-family:Helvetica;-inkscape-font-specification:Helvetica;writing-mode:lr-tb;fill:#000000;fill-opacity:1;fill-rule:nonzero;stroke:none"
       id="text112"><tspan
         x="0"
         y="0"
         id="tspan110">5</tspan></text>
<text
       transform="matrix(1.3333333,0,0,1.3333333,233.90666,88.573337)"
       style="font-variant:normal;font-weight:normal;font-size:12px;font-family:Helvetica;-inkscape-font-specification:Helvetica;writing-mode:lr-tb;fill:#000000;fill-opacity:1;fill-rule:nonzero;stroke:none"
       id="text116"><tspan
         x="0"
         y="0"
         id="tspan114">1</tspan></text>
<text
       transform="matrix(1.3333333,0,0,1.3333333,274.82666,272.82667)"
       style="font-variant:normal;font-weight:normal;font-size:12px;font-family:Helvetica;-inkscape-font-specification:Helvetica;writing-mode:lr-tb;fill:#000000;fill-opacity:1;fill-rule:nonzero;stroke:none"
       id="text120"><tspan
         x="0 6.6719999"
         y="0"
         sodipodi:role="line"
         id="tspan118">15</tspan></text>
<text
       transform="matrix(1.3333333,0,0,1.3333333,184.6,271.12)"
       style="font-variant:normal;font-weight:normal;font-size:12px;font-family:Helvetica;-inkscape-font-specification:Helvetica;writing-mode:lr-tb;fill:#000000;fill-opacity:1;fill-rule:nonzero;stroke:none"
       id="text124"><tspan
         x="0"
         y="0"
         id="tspan122">6</tspan></text>
<text
       transform="matrix(1.3333333,0,0,1.3333333,167.12,166.38667)"
       style="font-variant:normal;font-weight:normal;font-size:12px;font-family:Helvetica;-inkscape-font-specification:Helvetica;writing-mode:lr-tb;fill:#000000;fill-opacity:1;fill-rule:nonzero;stroke:none"
       id="text128"><tspan
         x="0"
         y="0"
         id="tspan126">3</tspan></text>
<text
       transform="matrix(1.3333333,0,0,1.3333333,296.42666,166.4)"
       style="font-variant:normal;font-weight:normal;font-size:12px;font-family:Helvetica;-inkscape-font-specification:Helvetica;writing-mode:lr-tb;fill:#000000;fill-opacity:1;fill-rule:nonzero;stroke:none"
       id="text132"><tspan
         x="0"
         y="0"
         id="tspan130">2</tspan></text>
<text
       transform="matrix(1.3333333,0,0,1.3333333,227.31999,223.96)"
       style="font-variant:normal;font-weight:normal;font-size:12px;font-family:Helvetica;-inkscape-font-specification:Helvetica;writing-mode:lr-tb;fill:#000000;fill-opacity:1;fill-rule:nonzero;stroke:none"
       id="text136"><tspan
         x="0 6.6719999"
         y="0"
         sodipodi:role="line"
         id="tspan134">24</tspan></text>
<text
       transform="matrix(1.3333333,0,0,1.3333333,26.439999,19.480006)"
       style="font-variant:normal;font-weight:bold;font-size:14px;font-family:Helvetica;-inkscape-font-specification:Helvetica-Bold;writing-mode:lr-tb;fill:#000000;fill-opacity:1;fill-rule:nonzero;stroke:none"
       id="text152"><tspan
         x="0 10.108 14 22.554001 31.108"
         y="0"
         sodipodi:role="line"
         id="tspan150">Blood</tspan></text>
<text
       style="font-style:normal;font-variant:normal;font-weight:bold;font-stretch:normal;font-size:14.66666603px;font-family:Helvetica;-inkscape-font-specification:'Helvetica, Bold';font-variant-ligatures:normal;font-variant-caps:normal;font-variant-numeric:normal;font-feature-settings:normal;text-align:start;writing-mode:lr-tb;text-anchor:start;fill:#000000;fill-opacity:1;fill-rule:nonzero;stroke:none;stroke-width:1.33333325"
       id="text194"
       x="500.94559"
       y="166.06302"><tspan
         sodipodi:role="line"
         id="tspan4407"
         x="500.94559"
         y="166.06302"
         style="stroke-width:1.33333325">Longnosed</tspan><tspan
         sodipodi:role="line"
         id="tspan4409"
         x="500.94559"
         y="184.39635"
         style="stroke-width:1.33333325">bandicoot</tspan></text>
<text
       transform="matrix(1.3333333,0,0,1.3333333,527.09332,151.94667)"
       style="font-variant:normal;font-weight:normal;font-size:12px;font-family:Helvetica;-inkscape-font-specification:Helvetica;writing-mode:lr-tb;fill:#000000;fill-opacity:1;fill-rule:nonzero;stroke:none"
       id="text198"><tspan
         x="0 6.6719999 13.344"
         y="0"
         sodipodi:role="line"
         id="tspan196">233</tspan></text>
<text
       transform="matrix(1.3333333,0,0,1.3333333,863.47998,151.66667)"
       style="font-variant:normal;font-weight:normal;font-size:12px;font-family:Helvetica;-inkscape-font-specification:Helvetica;writing-mode:lr-tb;fill:#000000;fill-opacity:1;fill-rule:nonzero;stroke:none"
       id="text206"><tspan
         x="0 6.6719999 13.344"
         y="0"
         sodipodi:role="line"
         id="tspan204">151</tspan></text>
<text
       style="font-style:normal;font-variant:normal;font-weight:bold;font-stretch:normal;font-size:14.66666698px;font-family:Helvetica;-inkscape-font-specification:'Helvetica, Bold';font-variant-ligatures:normal;font-variant-caps:normal;font-variant-numeric:normal;font-feature-settings:normal;text-align:start;writing-mode:lr-tb;text-anchor:start;fill:#000000;fill-opacity:1;fill-rule:nonzero;stroke:none;stroke-width:1.33333325"
       id="text210"
       x="589.55811"
       y="34.428921"><tspan
         sodipodi:role="line"
         id="tspan4405"
         x="589.55811"
         y="34.428921">Black rat</tspan></text>
<text
       transform="matrix(1.3333333,0,0,1.3333333,596.75999,52.400005)"
       style="font-variant:normal;font-weight:normal;font-size:12px;font-family:Helvetica;-inkscape-font-specification:Helvetica;writing-mode:lr-tb;fill:#000000;fill-opacity:1;fill-rule:nonzero;stroke:none"
       id="text214"><tspan
         x="0 6.6719999 13.344"
         y="0"
         sodipodi:role="line"
         id="tspan212">145</tspan></text>
<text
       style="font-style:normal;font-variant:normal;font-weight:bold;font-stretch:normal;font-size:14.66666603px;font-family:Helvetica;-inkscape-font-specification:'Helvetica, Bold';font-variant-ligatures:normal;font-variant-caps:normal;font-variant-numeric:normal;font-feature-settings:normal;text-align:start;writing-mode:lr-tb;text-anchor:start;fill:#000000;fill-opacity:1;fill-rule:nonzero;stroke:none;stroke-width:1.33333325"
       id="text218"
       x="769.80206"
       y="36.66217"><tspan
         sodipodi:role="line"
         id="tspan4411"
         x="769.80206"
         y="36.66217"
         style="stroke-width:1.33333325">Chuditch</tspan></text>
<text
       transform="matrix(1.3333333,0,0,1.3333333,792.54665,58.213338)"
       style="font-variant:normal;font-weight:normal;font-size:12px;font-family:Helvetica;-inkscape-font-specification:Helvetica;writing-mode:lr-tb;fill:#000000;fill-opacity:1;fill-rule:nonzero;stroke:none"
       id="text222"><tspan
         x="0 6.6719999 13.344 20.016001"
         y="0"
         sodipodi:role="line"
         id="tspan220">1068</tspan></text>
<text
       transform="matrix(1.3333333,0,0,1.3333333,703.38665,329.49333)"
       style="font-variant:normal;font-weight:normal;font-size:12px;font-family:Helvetica;-inkscape-font-specification:Helvetica;writing-mode:lr-tb;fill:#000000;fill-opacity:1;fill-rule:nonzero;stroke:none"
       id="text226"><tspan
         x="0"
         y="0"
         id="tspan224">5</tspan></text>
<text
       transform="matrix(1.3333333,0,0,1.3333333,578.79999,112.73334)"
       style="font-variant:normal;font-weight:normal;font-size:12px;font-family:Helvetica;-inkscape-font-specification:Helvetica;writing-mode:lr-tb;fill:#000000;fill-opacity:1;fill-rule:nonzero;stroke:none"
       id="text230"><tspan
         x="0 6.6719999"
         y="0"
         sodipodi:role="line"
         id="tspan228">32</tspan></text>
<text
       transform="matrix(1.3333333,0,0,1.3333333,601.87998,242.61333)"
       style="font-variant:normal;font-weight:normal;font-size:12px;font-family:Helvetica;-inkscape-font-specification:Helvetica;writing-mode:lr-tb;fill:#000000;fill-opacity:1;fill-rule:nonzero;stroke:none"
       id="text234"><tspan
         x="0"
         y="0"
         id="tspan232">8</tspan></text>
<text
       transform="matrix(1.3333333,0,0,1.3333333,802.09331,242.61333)"
       style="font-variant:normal;font-weight:normal;font-size:12px;font-family:Helvetica;-inkscape-font-specification:Helvetica;writing-mode:lr-tb;fill:#000000;fill-opacity:1;fill-rule:nonzero;stroke:none"
       id="text238"><tspan
         x="0 6.6719999"
         y="0"
         sodipodi:role="line"
         id="tspan236">11</tspan></text>
<text
       transform="matrix(1.3333333,0,0,1.3333333,820.74665,112.73334)"
       style="font-variant:normal;font-weight:normal;font-size:12px;font-family:Helvetica;-inkscape-font-specification:Helvetica;writing-mode:lr-tb;fill:#000000;fill-opacity:1;fill-rule:nonzero;stroke:none"
       id="text242"><tspan
         x="0 6.6719999"
         y="0"
         sodipodi:role="line"
         id="tspan240">17</tspan></text>
<text
       transform="matrix(1.3333333,0,0,1.3333333,706.34665,88.573337)"
       style="font-variant:normal;font-weight:normal;font-size:12px;font-family:Helvetica;-inkscape-font-specification:Helvetica;writing-mode:lr-tb;fill:#000000;fill-opacity:1;fill-rule:nonzero;stroke:none"
       id="text246"><tspan
         x="0"
         y="0"
         id="tspan244">0</tspan></text>
<text
       transform="matrix(1.3333333,0,0,1.3333333,747.26665,272.82667)"
       style="font-variant:normal;font-weight:normal;font-size:12px;font-family:Helvetica;-inkscape-font-specification:Helvetica;writing-mode:lr-tb;fill:#000000;fill-opacity:1;fill-rule:nonzero;stroke:none"
       id="text250"><tspan
         x="0 6.6719999"
         y="0"
         sodipodi:role="line"
         id="tspan248">22</tspan></text>
<text
       transform="matrix(1.3333333,0,0,1.3333333,657.03998,271.12)"
       style="font-variant:normal;font-weight:normal;font-size:12px;font-family:Helvetica;-inkscape-font-specification:Helvetica;writing-mode:lr-tb;fill:#000000;fill-opacity:1;fill-rule:nonzero;stroke:none"
       id="text254"><tspan
         x="0"
         y="0"
         id="tspan252">5</tspan></text>
<text
       transform="matrix(1.3333333,0,0,1.3333333,639.55998,166.38667)"
       style="font-variant:normal;font-weight:normal;font-size:12px;font-family:Helvetica;-inkscape-font-specification:Helvetica;writing-mode:lr-tb;fill:#000000;fill-opacity:1;fill-rule:nonzero;stroke:none"
       id="text258"><tspan
         x="0"
         y="0"
         id="tspan256">6</tspan></text>
<text
       transform="matrix(1.3333333,0,0,1.3333333,768.87998,166.4)"
       style="font-variant:normal;font-weight:normal;font-size:12px;font-family:Helvetica;-inkscape-font-specification:Helvetica;writing-mode:lr-tb;fill:#000000;fill-opacity:1;fill-rule:nonzero;stroke:none"
       id="text262"><tspan
         x="0"
         y="0"
         id="tspan260">5</tspan></text>
<text
       transform="matrix(1.3333333,0,0,1.3333333,704.21332,223.96)"
       style="font-variant:normal;font-weight:normal;font-size:12px;font-family:Helvetica;-inkscape-font-specification:Helvetica;writing-mode:lr-tb;fill:#000000;fill-opacity:1;fill-rule:nonzero;stroke:none"
       id="text266"><tspan
         x="0"
         y="0"
         id="tspan264">8</tspan></text>
<text
       transform="matrix(1.3333333,0,0,1.3333333,502.01332,19.480006)"
       style="font-variant:normal;font-weight:bold;font-size:14px;font-family:Helvetica;-inkscape-font-specification:Helvetica-Bold;writing-mode:lr-tb;fill:#000000;fill-opacity:1;fill-rule:nonzero;stroke:none"
       id="text282"><tspan
         x="0 8.5539999 12.446 20.23 28.014 36.568001"
         y="0"
         sodipodi:role="line"
         id="tspan280">Tissue</tspan></text>
<text
       y="169.3631"
       x="850.5899"
       id="text4417"
       style="font-style:normal;font-variant:normal;font-weight:bold;font-stretch:normal;font-size:14.66666698px;font-family:Helvetica;-inkscape-font-specification:'Helvetica, Bold';font-variant-ligatures:normal;font-variant-caps:normal;font-variant-numeric:normal;font-feature-settings:normal;text-align:start;writing-mode:lr-tb;text-anchor:start;fill:#000000;fill-opacity:1;fill-rule:nonzero;stroke:none;stroke-width:1.33333325"><tspan
         style="font-style:normal;font-variant:normal;font-weight:bold;font-stretch:normal;font-size:14.66666698px;font-family:Helvetica;-inkscape-font-specification:'Helvetica, Bold';font-variant-ligatures:normal;font-variant-caps:normal;font-variant-numeric:normal;font-feature-settings:normal;text-align:start;writing-mode:lr-tb;text-anchor:start;stroke-width:1.33333325"
         y="169.3631"
         x="850.5899"
         id="tspan4413"
         sodipodi:role="line">Brush tail</tspan><tspan
         style="font-style:normal;font-variant:normal;font-weight:bold;font-stretch:normal;font-size:14.66666698px;font-family:Helvetica;-inkscape-font-specification:'Helvetica, Bold';font-variant-ligatures:normal;font-variant-caps:normal;font-variant-numeric:normal;font-feature-settings:normal;text-align:start;writing-mode:lr-tb;text-anchor:start;stroke-width:1.33333325"
         y="187.69643"
         x="850.5899"
         id="tspan4415"
         sodipodi:role="line">possum</tspan></text>
</g></svg>